<svg width="222" height="146" viewBox="0 0 222 146" fill="none" xmlns="http://www.w3.org/2000/svg">
<path d="M112.624 2.81238L114.543 3.21668L115.25 3.01453L115.452 2.91346H115.755L116.159 3.01453L116.664 3.4188L117.068 3.62095L117.674 3.72203L118.886 3.4188H119.29L120.704 3.72203H121.714L122.017 3.82307L123.027 4.22737L124.643 5.44017L125.047 5.84444L125.35 6.24874L125.552 7.05727L125.754 7.36047L129.39 10.2915L129.693 10.7968L129.895 11.2011L130.198 11.5043L131.713 12.515L131.915 12.8182L132.925 14.1321L133.733 14.9406L136.965 16.8609L137.874 17.5684L138.985 18.8823L139.389 18.9833L139.793 19.0844H140.5L141.611 18.7812H141.914L144.742 19.2866L145.045 19.1855L145.55 18.9833L145.853 18.8823L146.257 18.9833L147.166 19.7919L147.469 20.0951L147.772 20.2973L148.075 20.3983L149.792 20.2973L150.196 20.3983L150.6 20.6004L151.105 21.1058L151.509 21.3079H152.014L152.317 21.1058L152.822 20.8026H153.226L155.549 21.5101L156.761 22.0154L157.266 22.4197H157.872H158.276L158.781 22.0154L159.286 21.8133H159.589L160.094 21.6111L160.296 21.5101L161.205 20.8026L162.215 20.2973L164.841 19.2866L165.548 18.8823L166.053 18.9833L166.76 19.4887L168.275 20.9037L168.78 21.6111L168.982 22.2176V22.925V23.2282L169.386 23.7336L170.396 24.9464L170.598 25.3507L170.396 25.856L169.79 26.9678L169.386 27.372L167.972 28.1806L167.366 28.787L167.265 28.9892V29.1913L167.568 29.3934L169.386 29.2923H169.689L170.093 29.5955L171.002 30.4041L171.507 30.7073L172.921 31.1116L173.426 31.4148L173.628 31.8191V32.2233L173.83 32.6276L174.335 33.0319L175.547 33.7394L176.052 34.1436L176.456 34.5479L176.759 35.2554L177.062 35.5586L178.577 36.6703L178.88 37.0746L178.981 37.4789L178.678 37.8832L178.375 38.1864L177.264 38.9949L177.062 39.197L176.86 39.8035L176.759 40.1067L176.86 40.4099L177.062 40.612L179.183 42.1281L180.597 43.543L184.536 46.8783L185.243 47.6868L185.445 48.1922L185.243 48.7986L184.536 50.2135L184.334 50.7189V51.0221L184.536 51.2242L185.445 51.9317L186.354 52.9424L186.556 53.3466L186.354 53.852L184.839 55.5702L184.637 56.0755L184.738 56.2776L185.344 56.884L185.546 56.9851H185.849L186.354 56.5808L186.859 56.0755L187.061 55.8734L187.263 55.7723L187.869 56.0755L188.273 56.4798L188.576 56.6819H188.98L189.384 56.4798L190.394 55.7723L190.495 55.4691V55.1659L189.99 54.7616L189.889 54.6605L189.788 54.3573L189.889 54.0541L190.798 52.5381L194.838 47.5858L195.747 46.9793L196.05 46.8783H196.555L197.464 47.1815L199.888 48.5964L200.797 49.3039L201.1 49.7082L201.403 50.2135L201.605 50.4157L202.009 50.6178L202.716 50.7189L204.736 50.5167L205.241 50.3146L205.645 49.8092L206.756 49.1018L209.988 48.6975L210.19 49.405L210.291 50.1125L210.493 50.5167L210.695 50.7189H210.998L212.917 50.4157H213.22L213.422 50.5167L213.624 50.7189L213.523 51.2242L213.321 51.5274L212.816 51.8306L212.614 52.0328L212.008 53.2456L211.503 53.6499L211.301 53.852L211.2 54.3573V55.9744V56.4798L211.301 56.6819L211.402 56.783L211.604 56.884L213.422 56.6819L213.624 56.5808L213.826 56.3787L214.129 55.7723L214.533 53.852L214.634 53.4477L214.937 52.9424L215.24 52.6392L215.543 52.5381L217.967 52.336L218.573 52.437L218.775 52.6392L218.876 52.8413L219.078 53.3466L219.179 54.2563L219.28 56.0755L219.179 56.4798L219.078 56.783L218.674 57.0862L218.068 57.3894L217.361 57.6926L217.159 57.8947L217.058 58.1979L217.26 59.0065L217.361 59.714V59.9161L217.26 60.2193L217.058 60.4214L216.452 60.7247L216.25 60.9268L216.149 61.3311L216.048 63.8578L216.25 64.2621L216.755 64.6663V64.8685L216.553 65.2727L216.25 65.4749L214.937 66.0813L214.735 66.2834L214.634 66.5866V67.2941L214.735 67.6984L214.937 68.9112L215.24 71.3369L215.139 71.7411L214.836 73.5603V73.9646L214.937 74.571L215.038 74.7732L215.24 74.9753H215.543L216.25 74.6721L216.856 74.571L217.361 74.6721L217.664 74.7732L217.765 74.9753L217.866 75.4807L218.068 75.6828L218.27 75.7839L219.482 75.986L219.785 76.1881L219.987 76.3903L220.088 76.5924V77.502L220.189 78.1084L220.492 79.2202L220.997 82.4544L221.098 83.2629L221.199 84.1725V84.4758L221.098 84.88L220.795 85.3854L219.987 86.1939L219.583 86.4971L219.179 86.6992L218.573 86.8003L218.371 87.0025L218.169 87.3057L218.068 87.811V88.6196L218.472 90.8431L218.573 91.4495L219.179 92.9655L219.28 93.5719L219.381 94.6837V95.3911L219.28 95.6944L218.977 96.1997L218.371 96.8061L216.957 98.0189L216.351 98.4232L215.745 98.6254L215.442 98.5243L213.523 97.5136L211.402 96.9072L210.897 96.604L210.695 96.4018L210.493 95.5933L210.089 95.189L209.887 94.9869L206.554 93.9762H205.948L204.13 94.4815H203.12H202.817L202.312 94.6837L201.908 95.189L201.706 95.6944L201.605 96.5029L201.302 101.354L201.403 101.758L201.605 102.87V103.78L201.908 104.285L202.211 104.487L203.221 104.689L203.524 104.791L203.726 104.892L203.827 105.195L204.433 106.711L204.837 107.418V107.924L204.534 108.025L203.928 108.126L202.11 108.227H201.706L201.403 108.429L200.999 108.732L200.595 108.833H199.686L199.484 109.035L199.282 109.238L199.181 109.743L199.08 110.046V110.754L199.181 111.057L199.383 111.36L199.888 111.663L200.696 111.865L200.999 112.169L201.201 112.472L201.605 114.392L191.303 115.908L191.101 115.807L190.899 115.605L190.596 115.201L190.192 114.796L189.586 114.695L189.283 114.796L188.778 114.998L188.172 115.504L187.97 115.908L187.566 116.514L187.162 116.818L186.657 116.919H185.445L184.738 116.818L184.334 116.717L183.728 116.11L183.526 116.009L183.223 115.807L181.91 115.706L181.405 115.504L181.304 115.302L181.102 113.482L181.001 112.977L180.799 112.775H180.193L179.89 112.876L179.486 112.977L179.082 113.482L178.88 113.887L178.577 114.493L178.375 114.695L177.87 114.897L175.345 115.1H174.941L174.537 114.695L174.335 114.493L173.83 114.291L173.729 114.089L173.628 113.482L173.426 113.28L172.921 112.977L172.82 112.775L172.719 112.169L172.82 111.865L172.921 111.764H173.426L173.628 111.966L174.032 112.371L174.335 112.472L174.638 112.371L174.941 111.966L175.042 111.562L175.547 110.147L175.951 109.238V108.934V108.631L175.749 107.823L175.85 107.216L175.951 106.711V106.408H175.85L174.234 106.509L173.83 106.205L173.628 105.902L173.426 105.7L172.719 105.397L172.618 105.195L172.719 104.285V103.881L172.618 102.769L172.517 102.163L172.214 101.657L172.012 101.556L171.709 101.455L170.901 101.253L170.598 100.95V100.748L170.699 100.445L171.002 99.9392L171.709 99.1307L172.012 98.5243L172.113 98.2211L171.911 97.7157L171.608 97.6147L171.204 97.7157L169.386 99.0296L168.881 99.1307H168.275L167.972 98.9285L167.871 98.7264V98.0189V97.7157L167.568 97.0082L167.467 96.4018L167.568 95.9976L167.77 94.8858V94.5826V94.2794L167.568 94.0773L167.366 93.8751L167.164 93.774L166.76 93.673H166.154L162.821 94.4815L159.791 95.6944L159.185 95.7954L158.68 95.6944L157.872 94.3805L157.468 93.9762L157.165 93.8751L154.438 93.2687L153.933 92.9655L153.226 92.157L152.822 91.4495L152.418 91.0452L151.812 90.8431L151.206 90.742L149.59 90.9441L147.267 91.5506L146.762 91.8537L145.853 92.5612L144.641 93.8751L144.035 94.2794L143.126 94.5826L142.621 94.6837H142.116L141.308 94.1783L132.521 92.6623L128.885 90.8431L127.673 90.4388H127.168L124.138 90.9441L123.229 91.2473L122.724 91.3484H122.219L120.704 90.6409L120.098 90.5399H119.189L117.977 90.8431L117.674 91.0452L117.169 91.3484L116.159 91.4495H115.654L115.048 91.3484L114.442 91.5506L113.634 92.0559L111.715 93.673L110.301 94.5826H107.069L106.766 94.4815L106.564 94.2794L106.362 93.774L106.261 93.1677V92.5612V91.5506V91.3484L106.059 91.1463L105.756 91.0452H105.15L104.847 91.2473L104.544 91.4495L104.342 92.258L104.241 92.6623L104.342 93.0666L104.544 93.8751L104.847 94.5826L104.948 94.8858L104.746 95.3911L104.645 95.8965L104.544 97.9179L104.443 98.12L104.241 98.4232L103.534 98.9285L103.231 99.1307L103.029 99.636V100.04L103.13 100.343L103.332 100.445L103.534 100.546H104.14L104.443 100.647L104.645 100.748L104.847 101.253V101.961V102.264L105.15 102.769L105.453 103.173L106.059 103.477L108.079 103.982L108.382 104.083L108.685 104.588L108.786 105.094L108.887 105.397L108.786 106.104L108.584 106.509L108.281 106.812L107.675 107.115L105.251 107.62L104.948 107.823L103.433 109.136L103.13 109.541L102.928 110.147L102.726 110.956V111.562L102.928 112.067L103.332 112.472L107.675 115.1L107.978 115.504L108.079 115.807V116.312L107.877 116.717L107.372 117.626L107.17 118.132V118.536V118.839L107.372 119.648V119.951L107.17 121.063V121.366L107.271 121.568L107.574 121.77L108.584 121.972L109.897 122.174L110.2 122.376L110.402 122.478V123.084L109.796 127.026L109.392 128.339L108.988 130.765L108.584 132.18L107.776 134.303L107.675 134.909V135.111L107.877 135.313L108.988 136.223L109.291 136.627L109.594 137.132V137.739L109.19 139.457L109.089 139.76L108.786 140.367L108.281 140.973L107.776 141.074L104.14 140.872L98.3828 139.76L93.6358 137.739L90.8078 137.234L90.2018 137.436L82.5258 141.074L75.4558 142.59L68.9918 144.713L66.3658 145.117L60.8108 144.612L52.1248 141.782H50.8118L43.7418 143.702L38.2878 144.106L37.5808 143.904L37.4798 143.702L37.1768 142.792L36.8738 142.287L36.5708 141.984H36.1668L34.8538 142.085L34.5508 141.984L34.3488 141.782L34.0458 140.67L33.8438 140.165V139.861L34.0458 139.255L34.5508 138.244V138.042L34.4498 137.638L34.2478 137.335L33.8438 136.93L33.4398 136.829L33.1368 136.728L29.8038 137.436L29.2988 137.638L29.1978 137.84L29.0968 138.143L29.2988 138.952V139.558L29.1978 139.861L28.7938 140.266L28.2888 140.468L22.3298 141.681L21.9258 141.883L21.6228 142.388L21.5218 142.893L21.3198 143.095L21.0168 143.399H20.6128L20.3098 143.298L19.7038 142.994L19.1988 142.489L18.7948 142.085L18.6938 141.883L18.4918 141.377L18.2898 140.569L18.0878 140.063L17.4818 139.76L16.5728 139.356L12.4318 138.547L12.0278 138.143L11.2198 137.436L10.9168 137.335L6.67478 136.122L1.92783 135.414L1.52381 135.212L1.3218 135.01L1.22082 134.808V134.404L1.3218 133.797L1.72582 133.191L2.3318 132.483L2.63478 132.079L2.8368 131.675V131.169L2.73582 130.361L2.43283 129.451L2.02881 128.441L1.11978 126.823L0.816796 126.015L0.71582 125.51L1.01881 125.307L1.42283 124.903L1.72582 124.802L3.8468 124.196L6.27082 123.994L6.47283 123.69L6.57381 123.286L6.27082 122.174L5.96783 121.669L5.66478 121.366L5.26082 121.063L5.05881 120.658V120.052V115.504L5.26082 114.392L5.46283 113.887L5.56381 113.482L5.66478 111.562L5.76582 111.158L5.8668 110.855L6.27082 110.349V110.046L6.06881 109.541L5.56381 108.732L5.15978 108.53L4.75582 108.429L4.45283 108.53H3.8468L3.54381 108.328L3.44283 108.025V107.519L3.8468 106.003L4.14978 105.195L4.25082 104.689L3.64478 104.184L4.25082 101.354L4.8568 99.1307L5.05881 98.9285L5.46283 98.6254L5.96783 98.5243L6.57381 98.12L6.97783 97.5136L7.48283 96.5029L7.88679 95.9976L8.39179 95.4922L9.19978 94.8858L9.60381 94.5826L10.0078 94.4815L12.1288 94.6837L13.4418 94.2794L13.8458 94.0773L14.0478 93.774L14.3508 92.7634L14.4518 92.0559L14.3508 91.4495V90.8431L14.2498 90.2366L14.4518 89.5292L14.6538 88.5185L14.9568 87.0025L15.1588 86.8003L15.4618 86.6992H15.6638L15.8658 87.1035L16.2698 89.4281V89.6303L15.9668 90.3377L15.8658 90.6409V91.2473L16.0678 92.0559L16.1688 92.3591L16.3708 92.5612L16.6738 92.7634L16.8758 92.5612L17.0778 92.3591L17.4818 91.0452L17.9868 89.8324L18.0878 89.5292L20.4108 87.0025L20.7138 86.4971L20.9158 85.9918L21.1178 85.7896H21.4208L21.6228 85.8907L22.1278 86.4971L22.5318 86.9014H23.1378L23.8448 86.8003L24.1478 86.6992L24.4508 86.396L24.9558 85.7896L27.1778 83.6672L27.3798 83.4651L27.9858 82.2522L28.2888 82.0501L28.5918 81.949H28.9958L29.3998 81.848L30.1068 81.6458L30.4098 81.3426L30.5108 80.9384L31.1168 76.9967L31.0158 76.3903L30.9148 76.1881L30.7128 75.986L30.0058 75.7839L29.8038 75.5817L29.6018 75.1774L29.5008 74.47L29.3998 70.124L28.9958 68.4059V67.6984L28.8948 67.193L28.3898 66.8898L28.1878 66.7888L28.0868 66.4855L27.9858 65.7781L28.0868 65.2727L28.2888 64.9695L28.6928 64.6663L28.7938 64.3631V64.0599L27.5818 61.23L27.3798 60.7247V60.3204L27.4808 59.714V59.5118L27.2788 59.4107H26.7738L26.5718 59.3097L26.4708 58.9054L26.3698 58.1979V57.4905L26.5718 57.1873L26.7738 56.884L28.3898 55.8734L33.1368 53.9531L33.3388 54.0541L33.4398 54.4584H33.7428L34.1468 54.2563L35.6618 52.6392L36.1668 52.336L42.0248 49.405L42.5298 49.1018L44.5498 46.9793L44.8528 46.7772L45.4588 46.6761L45.8628 46.5751L46.3678 46.3729L47.0748 45.7665L47.4788 45.3622L47.5798 45.059L47.4788 44.8569L47.1758 44.6548L44.9538 44.1494L44.6508 44.0484L44.5498 43.8462L44.4488 43.2398L44.1458 42.7344L43.9438 42.5323L40.6108 42.3302L40.0048 42.2291L38.7928 41.3195L38.4898 41.2184L35.3588 40.612L35.1568 40.511L34.7528 40.1067L34.4498 39.2981L34.2478 38.7928L34.0458 38.5907L33.5408 38.2874L33.3388 38.0853L33.0358 37.681L32.7328 36.7714L32.8338 36.2661L33.6418 34.9522L34.0458 34.5479L34.3488 34.3458H34.6518H34.8538L35.0558 34.5479L35.3588 35.0533L35.5608 35.2554H35.9648H36.2678L38.4898 33.3351L38.7928 33.234H39.1968L39.8028 33.4362L40.0048 33.6383L40.2068 33.8404L40.4088 34.75L40.5098 34.9522L40.7118 35.1543L41.0148 35.3565H41.3178L41.6208 35.2554L42.0248 35.0533L43.0348 33.6383L43.5398 33.234H43.8428L44.5498 33.3351L44.7518 33.5372L44.9538 33.7394V34.0426L44.7518 35.1543L44.8528 35.4575L44.9538 35.6596L45.3578 35.5586L45.6608 35.1543L46.0648 34.5479L46.2668 34.2447H46.4688L46.5698 34.4468L46.6708 35.4575V35.6596L46.9738 36.2661V37.0746L47.4788 37.3778L47.7818 37.2768L48.0848 37.0746L48.3878 36.5693L48.7918 35.1543L49.1958 34.4468L49.7008 34.1436L50.0038 33.7394L50.4078 33.0319L50.9128 32.6276L51.1148 32.2233L51.2158 31.9201L51.3168 31.5159L51.6198 30.5052L53.0338 28.2817L53.5388 28.787L59.8008 33.234L60.2048 33.3351L61.0128 33.234H61.4168L61.7198 33.4362L62.4268 34.0426L62.7298 34.3458L63.7398 34.75L66.6688 35.2554L68.3858 36.165L70.1028 38.3885L70.8098 38.4896L72.4258 37.3778L73.6378 36.165L74.0418 35.7607L74.1428 35.4575L74.0418 35.2554L73.9408 34.9522L73.2338 34.4468L73.0318 34.2447L72.9308 33.9415V33.3351L73.0318 33.0319L73.1328 32.7287L74.2438 31.5159L74.8498 31.1116L75.1528 30.8084L75.2538 30.5052L75.0518 28.6859L74.8498 28.1806L74.6478 27.9785L73.0318 26.3614L72.8298 25.856V25.2496L72.9308 24.1378L73.1328 23.4304L73.6378 22.3186L74.4458 19.893L74.8498 19.2866L75.1528 18.9833L75.7588 18.478L76.7688 18.0737H77.4758L77.8798 17.8716L78.1828 17.5684V17.2652L78.0818 17.0631L77.8798 16.962H77.2738L76.8698 16.8609L76.7688 16.3556L76.9708 15.8502L77.1728 15.6481L78.5868 14.4353L79.3948 13.6267L80.1018 12.616L80.2028 12.3128L80.3038 11.6054L80.2028 10.9989V10.6957L80.4048 10.2915L80.7078 10.1904H81.0108L81.6168 10.4936L91.7168 6.04659L93.6358 5.7434L98.1808 4.32841L98.6858 4.12629L99.0898 3.82307L99.5948 3.11561L100.201 2.50919L100.605 2.206L101.11 2.00385L101.413 1.90277L102.827 2.00385L103.231 1.90277L103.736 1.49851L104.039 1.39743H104.342L105.958 2.00385L106.16 2.206L106.261 2.40812V2.71134L106.16 2.91346L105.756 3.31773L105.554 3.51988L105.453 3.82307L105.554 4.02522L105.756 4.32841L106.059 4.42949L106.766 4.53056L107.069 4.32841L107.372 4.22737L107.675 3.62095L107.978 2.50919L108.18 2.00385L108.685 1.49851L108.988 1.29636L109.392 1.19531H109.695L110.301 1.39743L110.907 1.70066L112.624 2.81238Z" fill="#F6D375" fill-opacity="0.3" stroke="#18181B" stroke-linejoin="round"/>
</svg>
