<svg width="99" height="186" viewBox="0 0 99 186" fill="none" xmlns="http://www.w3.org/2000/svg">
<path d="M58.9107 5.24977L59.7187 5.65404L60.0217 5.95725L60.7287 7.06901L61.5367 7.67541L61.9407 7.97862L62.2437 8.78717L62.4457 9.29251L62.7487 9.69678L63.1527 10.1011L63.5567 10.2021L64.6677 10.5053L65.1727 10.8085V11.1117L64.7687 11.516L63.5567 12.2235L63.0517 12.5267L62.6477 12.931L62.3447 13.4363L62.0417 14.0427L60.9307 18.0855V18.7929L61.0317 19.1972L61.3347 19.3994L61.8397 19.8036L62.2437 19.9047L63.7587 20.2079L64.2637 20.5111L64.4657 20.7133L64.6677 21.1175L64.8697 22.1282L65.0717 22.5325L65.3747 22.9368L65.9807 23.4421L68.4047 24.8571L70.2227 26.272L70.7277 26.5752L70.9297 26.7774L71.0307 27.0806L70.8287 27.3838L70.5257 27.8891L70.4247 28.1923L70.5257 28.4955L70.7277 28.6977H71.1317L71.7377 28.5966L72.0407 28.6977L72.3437 28.8998L72.6467 29.6073L72.9497 30.0116L73.4547 30.3148L74.5657 30.618L75.0707 31.0222L75.1717 31.3255L75.2727 31.6287L75.3737 32.7404L75.4747 33.1447L75.8787 33.3468H76.0807L78.6057 33.65L78.9087 33.549L79.1107 33.4479L79.4137 32.9425L79.8177 31.9319L80.3227 31.2244L80.7267 30.4158L80.9287 30.2137H81.3327H81.6357L81.9387 30.5169L82.1407 30.9212L82.2417 31.6287V32.2351L82.0397 34.2564V34.6607L82.1407 34.9639L82.3427 35.3682L82.7467 35.9746L83.6557 36.9853L84.2617 37.8949L84.4637 38.6024V39.3099L84.3627 39.7141L84.0597 39.9163L83.5547 40.2195L83.3527 40.3205L83.2517 40.6238V40.927L83.3527 41.3312L84.0597 41.9376L84.2617 42.2409L84.3627 42.443L84.2617 42.8473L83.5547 43.7569L83.2517 44.3633L82.9487 45.2729L82.8477 45.7783L82.9487 46.0814L83.1507 46.3847L83.5547 46.6879L84.6657 47.1932L84.8677 47.2943L85.0697 47.5975L85.2717 48.0018L85.3727 48.8103L85.2717 49.821L85.0697 50.5285L84.8677 50.7306L83.9587 50.8317L83.6557 51.0338L83.2517 51.4381L82.9487 51.8424L82.5447 52.2466L81.9387 52.3477L81.5347 52.4488L78.8077 51.9434L78.6057 52.0445V52.3477L78.7067 52.8531L80.3227 55.683L80.5247 56.2894L80.6257 56.8958V57.0979L80.4237 57.3001L80.1207 57.4011L79.1107 57.5022L78.8077 57.6033L78.7067 57.8054L78.6057 58.1086L78.4037 60.0289L78.6057 60.4332L79.0097 60.7364L81.0297 61.5449L81.3327 61.7471L81.5347 61.9492L81.7367 62.4546V62.7578L81.5347 63.6674L81.6357 64.2738L81.9387 64.7791L83.4537 66.8005L84.0597 67.7101L84.2617 68.3165L84.3627 68.9229L84.4637 69.2262L84.7667 69.7315L85.0697 70.1358L96.6847 73.471L95.6747 74.7849L94.9677 74.9871L93.8567 75.0881L93.6547 75.1892L93.5537 75.2903L93.7557 75.4924L94.7657 76.1999L94.9677 76.5031V76.8063L94.5637 77.4127L94.1597 77.918L93.6547 78.3223L93.1497 78.6255H92.8467L91.4327 78.3223H91.1297L90.9277 78.4234L90.8267 78.7266L90.2207 79.8383L90.1197 80.1415V80.5458L90.2207 80.9501L90.4227 81.2533L90.6247 81.4554L92.0387 82.1629L92.5437 82.4661L92.9477 82.8704L93.3517 83.2747L93.5537 83.78L93.7557 84.3864V84.6896L93.6547 85.195L93.4527 85.8014L91.7357 89.2377L91.2307 89.9452L91.0287 90.2484V90.5516L91.1297 90.8548L91.3317 91.158L91.9377 91.7644L92.1397 91.9666V92.3708L92.0387 92.8762L91.5337 93.5837L91.1297 93.8869H90.7257L90.2207 93.5837L89.9177 93.4826L89.3117 93.5837L89.1097 93.6847L88.9077 94.089L88.7057 94.6954V96.0093L88.8067 96.5146L88.9077 96.9189L90.5237 98.1317L90.7257 98.3339L90.8267 98.6371V98.8392L90.5237 99.1424L89.8167 99.6478L89.6147 99.8499L89.5137 100.153L89.4127 100.557L89.5137 101.164L89.7157 101.467L89.9177 101.669L90.2207 101.871L90.9277 101.972H94.3617L94.5637 102.174L94.8667 102.68L95.0687 103.185L95.4727 104.297V104.6L95.3717 104.903L95.0687 105.105L93.3517 105.712L93.1497 106.015L93.0487 106.419L93.1497 106.925L93.3517 107.228L93.5537 107.834L93.6547 108.138L93.7557 109.047L93.9577 109.654L94.4627 109.957L95.3717 110.159L95.5737 110.361L95.7757 110.563L95.8767 110.765V111.17L95.7757 111.978V112.787L95.9777 113.292L96.1797 113.494L96.8867 114.404L97.1897 115.111V115.516L96.9877 115.92L96.5837 116.526L96.2807 117.032L96.0787 117.537L95.9777 118.143L96.0787 118.952L96.3817 119.457L96.9877 120.367L97.2907 120.872L97.3917 121.479V122.186V122.894L97.4927 123.5L97.5937 124.106L97.7957 124.713L97.8967 124.915L97.7957 125.319L97.5937 125.622L96.9877 125.926L96.5837 126.027L94.7657 126.128L93.4527 126.734L93.0487 127.138L91.9377 128.553L91.6347 128.857L91.0287 128.958L90.4227 128.857L89.8167 128.553L89.3117 128.25L88.2007 127.442L87.5947 127.138L86.5847 127.037L86.2817 126.936L85.6757 126.532L84.7667 125.926L83.9587 125.521L82.5447 125.218L82.2417 125.42L81.8377 125.825L80.6257 128.048L80.2217 128.351L79.9187 128.452L77.4947 128.048H76.1817L75.8787 128.351L75.4747 128.756L75.0707 129.867L74.8687 130.474L74.6667 130.979L74.5657 131.282V131.99L74.4647 132.394L74.1617 132.798L73.2527 133.203L73.0507 133.405L72.7477 133.91L72.5457 134.82L72.2427 135.527L71.8387 135.931L71.4347 136.235L70.8287 136.841L70.4247 137.043L70.2227 137.346L70.1217 137.751L69.8187 138.862L69.5157 139.166L69.4147 139.57V139.974L69.6167 140.783L69.8187 141.187L70.3237 141.995L70.4247 142.198V142.501L70.3237 142.905L70.0207 143.309L69.7177 143.511L69.2127 143.815L69.0107 144.017L68.9097 144.421L69.0107 144.825L69.2127 145.735L69.8187 146.746L70.2227 148.161L70.4247 149.373L70.5257 149.98L70.7277 154.629L70.9297 155.741L71.3337 156.853L71.6367 157.358L71.9397 157.863V158.166V158.47L71.6367 158.773H71.3337H70.7277L70.4247 158.874L70.3237 159.177V159.986L70.4247 160.895L70.6267 161.3V161.704L70.5257 163.624L70.1217 165.747L68.9097 170.295L68.2027 170.8L67.4957 172.215L66.8897 172.72L66.1827 172.821L65.6777 172.417L65.1727 171.912L64.6677 171.507L62.4457 171.103L61.2337 171.305L61.3347 172.417L61.8397 172.72L62.4457 172.821L62.7487 173.226V174.337L62.4457 175.045L62.0417 175.348L61.4357 175.449L60.8297 175.55L60.1227 175.348L58.9107 174.54L58.3047 174.337H56.3857L56.0827 174.641L55.3757 175.752L55.0727 176.157L54.4667 176.258L52.0427 176.056L50.9317 175.651L50.2247 175.55L49.9217 175.752L49.7197 176.056L49.5177 176.157L49.1137 175.853L48.4067 174.944L46.2857 174.438H45.0737L43.9627 174.944L43.1547 175.954L42.5487 176.965L41.7407 177.673L40.3267 177.875L39.3167 177.369L38.5087 176.157L38.2057 174.438L38.6097 172.72L38.0037 172.316L37.3977 172.114L36.8927 172.215L36.2867 172.72L35.9837 173.428L36.3877 174.641L36.2867 175.55L35.4787 176.965L34.6707 177.066L34.1657 176.056L33.9637 174.641L33.6607 173.832L33.0547 173.226L32.3477 173.327L32.0447 174.135L32.2467 174.742L33.3577 175.954L33.5597 176.46L33.2567 177.875L32.6507 178.38L31.7417 178.279L30.9337 177.875L28.9137 176.359L27.6007 176.056L26.4897 176.965L26.5907 177.875L27.7017 178.481L29.7217 179.088L30.7317 179.795L31.6407 180.705L31.8427 181.614L30.7317 181.918L28.8127 182.019L28.2067 181.918L28.0047 181.614L27.7017 181.008L27.2977 180.604L26.6917 180.705L26.1867 181.918L26.9947 184.849L26.0857 185.354L24.8737 185.253L23.9647 184.95L23.1567 184.242L22.4497 183.13L21.4397 180.705L21.0357 180.098L19.6217 178.683L18.5107 178.077L15.8847 178.784L14.8747 178.38L13.5617 179.896L12.6527 177.875L12.2487 176.763L12.0467 176.056L12.1477 175.752L12.6527 175.55L12.8547 175.449L13.0567 175.045L12.8547 174.843L12.1477 174.438L11.6427 173.933L11.3397 173.731L10.2287 173.024L9.82471 172.821L9.42072 172.417L9.31971 172.013V171.71L9.42072 171.406L9.82471 170.598L9.92572 170.093V169.183L9.7237 169.082L9.62271 169.183L9.2187 169.587L9.01671 169.789L8.7137 169.688L8.2087 169.385L8.00671 168.981V168.678L8.10771 167.869L8.00671 167.667L7.7037 167.566L7.40072 167.465L6.89572 167.364L6.49171 167.162L5.78471 166.555L5.48171 166.05L5.38072 165.646L5.48171 164.938L5.78471 164.028L5.88572 163.321V161.603L5.98671 160.996L6.1887 160.39L6.28971 159.885L6.1887 159.581L5.88572 159.177L5.17871 158.369L5.07771 157.964L4.97671 157.661L5.17871 157.358L5.58271 156.65L5.6837 156.044L5.78471 155.842L5.98671 155.741L6.59271 155.64L6.89572 155.438L6.99671 155.134V154.932L6.6937 154.73L5.58271 154.326L5.17871 153.922L4.37072 152.709L4.26971 152.304V151.9L4.47171 149.171L4.67371 148.06V147.655L4.57271 147.352L4.37072 147.15L3.56271 147.352H3.15871L3.05771 147.15V146.847V146.544L3.46171 145.634L3.56271 145.129V144.421L3.46171 143.916L3.25971 143.613L2.85572 142.905L2.75471 142.501L2.95671 142.299L3.46171 141.995L3.66371 141.793L3.76471 141.389L3.66371 140.884L3.36072 140.176V139.873L3.56271 139.671L4.26971 139.469L4.57271 138.862V138.761L4.47171 138.256L3.86572 137.245L3.46171 136.336L3.36072 135.729V135.325L3.66371 134.82L4.06771 134.314L4.57271 133.809L4.87572 133.506L4.97671 133.101L5.17871 132.495V132.091L5.07771 131.484L4.16871 129.564L4.06771 129.059V128.654L4.16871 127.947V127.543L4.57271 126.633L4.67371 126.229L4.57271 125.926L4.47171 125.622L3.86572 124.915L3.66371 124.612L3.36072 123.904V123.5V122.995L3.66371 121.681V120.872V120.165L3.76471 119.76L3.86572 119.457L4.06771 119.154L4.47171 118.75L4.97671 118.548L5.78471 118.244L5.98671 117.941L6.08771 117.537V116.627V116.122L6.1887 115.718L6.49171 115.01L6.6937 114.404V114L6.59271 113.696L5.98671 112.787L5.58271 112.079L5.38072 111.473L5.27971 111.069L5.38072 110.563L5.58271 109.552V109.148V108.643L5.17871 107.026L5.07771 106.217V105.308V104.802L4.97671 104.499L4.77471 104.297L3.36072 103.286L3.15871 102.983L2.95671 102.478L2.45171 100.153L1.94671 98.6371L0.936709 96.5146L0.633706 95.504L0.532715 94.9986V94.5943L0.633706 94.089L1.44171 92.1687L1.64371 91.7644L2.04771 91.4612L3.56271 90.6527L3.86572 90.1473L4.06771 89.8441L4.26971 88.8334L4.47171 86.6099L4.57271 85.9025L4.77471 85.296L5.17871 84.8918L5.78471 84.2854L5.98671 83.9821L6.1887 83.5779L6.39072 82.8704V82.3651V81.9608L5.98671 81.5565L4.47171 80.2426L4.06771 79.6362L3.76471 79.0298L3.66371 78.5245V78.1202L3.76471 77.817L3.96671 77.3116L4.37072 76.8063L4.97671 76.1999L5.17871 75.6945L5.27971 74.9871L5.38072 73.2689V72.4603L5.27971 71.8539L5.17871 71.5507L4.97671 71.0454L4.67371 70.54L3.36072 69.5294L2.95671 68.8219L2.65371 68.1144V67.7101L2.75471 67.3058L2.95671 66.2952L3.05771 65.2845V64.7791V64.2738L2.75471 63.7684L2.35072 63.3642L1.64371 62.7578L1.34072 62.4546L1.03771 61.8481L0.936709 61.4439V61.0396L1.34072 60.0289L1.54271 59.4225L1.44171 58.715L1.23971 57.8054L0.734712 56.3904L0.633706 55.683L0.936709 55.2787L1.34072 54.8744L1.74471 54.4701L4.97671 53.4595L5.17871 53.1562L5.27971 52.752L5.38072 52.0445L5.27971 51.6402L4.97671 51.4381H4.26971L3.86572 51.236L3.56271 51.0338L3.25971 50.6295L3.15871 50.3263L3.25971 50.0231L3.46171 49.9221L4.47171 49.3157L4.67371 49.1135L4.97671 48.5071L5.17871 47.4964V47.0921L4.97671 46.89L4.26971 46.2836L3.86572 45.7783L3.66371 45.475L3.76471 45.1718L3.86572 44.8686L4.06771 44.7676L6.1887 44.5654L6.79471 44.4644L7.09771 44.2622L7.29971 43.8579L7.50171 43.1505V42.7462L7.40072 42.443L7.09771 41.9376L6.6937 41.5334L6.1887 41.2302L4.26971 40.6238L3.96671 40.5227L3.76471 40.3205L4.06771 40.0173L5.27971 39.4109L8.00671 38.097L9.2187 37.2885L10.1277 36.1767L12.4507 32.5383L12.8547 32.134L13.6627 31.3255L14.0667 31.1233L14.5717 30.9212L15.2787 30.8201H15.7837L16.4907 31.0222L16.8947 31.1233L18.2077 30.9212L18.6117 30.8201L19.1167 30.5169L20.0257 29.5062L20.4297 29.1019L21.0357 28.0913L21.2377 27.8891L23.2577 26.3731L23.7627 25.9688L24.0657 25.5646L24.4697 24.6549L24.9747 23.8464L25.2777 23.4421L27.9037 21.5218L28.2067 21.2186L28.4087 20.7133L28.5097 20.2079V19.6015V19.2983L28.6107 18.9951L31.0347 17.0748L31.5397 16.4684L31.8427 15.862V15.5588L32.0447 15.1545L32.3477 14.7502L32.9537 14.2449L33.1557 13.8406L33.3577 13.3353V12.6278L33.4587 12.2235L33.6607 11.9203L33.9637 11.8192L34.5697 11.9203L35.8827 12.4256L36.1857 12.5267L36.4887 12.4256L36.7917 12.2235L36.9937 11.9203V11.516L36.8927 10.5053V9.79786L37.0947 9.19144L37.3977 8.78717L41.2357 7.17007L42.3467 6.15938L42.6497 6.05832H43.0537L44.1647 6.56367L45.2757 7.17007L45.9827 7.37222H46.3867L46.8917 7.17007L47.3967 6.7658L47.6997 6.46259L48.1037 5.95725L49.0127 5.1487L49.4167 4.8455L50.5277 4.34016L51.7397 4.03695L52.2447 3.73374L52.3457 3.43054L52.6487 2.41985L52.8507 1.81345L53.2547 1.40917L53.6587 1.20703H54.4667L54.8707 1.40917L55.1737 1.6113L55.4767 2.31879L55.5777 2.82413V3.2284V4.03695L55.8807 4.34016L56.1837 4.64335L58.9107 5.24977Z" fill="#F6D375" fill-opacity="0.3" stroke="#18181B" stroke-linejoin="round"/>
</svg>
