<svg width="163" height="205" viewBox="0 0 163 205" fill="none" xmlns="http://www.w3.org/2000/svg">
<path d="M73.0746 23.6935L72.9736 22.986L72.6706 23.4914L72.0646 23.6935L71.6606 22.7839L71.0546 22.0764L70.3476 21.6722L69.5396 21.47L68.8326 21.5711L67.9236 21.2679L66.7116 19.3476L65.8026 18.6401L64.9946 18.438H63.3786L62.4696 18.0337L61.7626 17.4273L60.0456 15.2038L59.6416 14.1931L59.8436 14.092L60.2476 12.2728L60.3486 11.5653V10.6557V9.9482L60.1466 9.34179L59.8436 8.73539L59.1366 8.0279L56.3086 6.61294L55.5006 5.8044L53.3796 2.87341L51.8646 1.76166L50.2486 1.35738L42.3706 1.55951L41.1586 1.86272L37.7246 3.68196L37.0176 3.78303L36.1086 3.17662L35.5026 3.07554L34.7956 3.58088L33.8866 5.29905L33.3816 5.90546L32.3716 6.20867L27.2206 5.29905L26.5136 4.38944L26.0086 2.97447L25.0996 1.35738L24.1906 0.649903L22.9786 0.548828L21.6656 0.75097L20.5546 1.15525L19.4436 2.267L18.6356 3.47982L17.7266 4.38944L16.5146 4.99585L14.9996 5.09691L14.2926 5.50119L13.6866 6.61294L12.8786 8.73539L12.0706 10.2514H10.9596L8.53559 9.24073L7.2226 9.645L5.7076 10.9589L6.11159 11.7674L6.41458 12.1717L6.7176 12.2728L6.91958 12.1717L7.42458 11.8685L7.62659 11.7674L7.82857 12.0706V12.2728L7.92958 12.9803L7.7276 16.3155L7.62659 17.3262L7.52559 18.0337L6.91958 19.2465L6.2126 20.1561L5.50559 20.8636L3.78857 22.1775L2.77857 22.7839L2.1726 22.885L1.46559 22.986L1.1626 23.0871V23.4914L2.1726 27.332L2.77857 31.9811L3.08159 33.194L3.28357 33.8004L3.48559 34.2047L3.6876 34.1036L3.78857 33.9014L5.00059 31.9811L5.10159 31.779H5.40458H5.7076L6.31357 31.9811L7.32357 32.6886L9.04059 34.3057L9.34357 34.71L9.54559 35.0132L9.7476 35.5185L9.84857 36.125L9.94958 36.4282L10.2526 36.6303L10.4546 36.8324L11.8686 37.2367L12.3736 37.5399L12.5756 37.7421L12.9796 38.1463L13.2826 38.7527L13.3836 38.9549V39.3591V39.7634L13.0806 40.3698L12.3736 41.4816L12.0706 42.088L11.9696 42.4923L11.8686 43.503V44.1094L12.0706 46.1307V46.7372L11.8686 47.3436H11.5656L11.3636 47.2425L10.6566 46.6361L10.3536 46.535L10.0506 46.4339H8.2326L8.03059 46.7372L7.92958 47.2425L8.2326 48.4553L8.53559 48.9607L8.83857 49.1628H9.14159L9.44458 49.2639L9.64659 49.466L12.7776 54.4184L14.0906 55.9344L14.1916 56.1365L14.2926 56.5408L14.3936 57.1472L13.2826 63.4134V63.7167L13.3836 64.1209L13.6866 64.3231H13.8886L16.0096 64.1209L16.7166 64.222L17.3226 64.4241L17.7266 64.8284L17.9286 65.1316L18.1306 65.9402L18.3326 67.2541L19.1406 70.2861V70.6904L19.0396 71.1957L18.7366 72.0043L18.4336 72.4086L18.1306 72.7118L16.4136 73.6214L16.0096 74.1267L15.5046 75.3395L13.9896 77.7652L13.3836 78.6748L12.8786 79.8876L12.7776 80.2919V80.5951L13.0806 81.1004L13.4846 81.6058L14.4946 82.3133L14.5956 82.6165L14.6966 82.9197L14.3936 83.9304L13.8886 85.5475L13.5856 86.0528L13.2826 86.1539L12.6766 86.2549L12.4746 86.4571V86.8614L12.6766 87.5688L12.9796 87.872L13.5856 88.1752L13.8886 88.6806L13.9896 88.8827L13.8886 89.5902L13.3836 91.3084L13.0806 91.9148L12.8786 92.1169L12.6766 92.218H12.3736L11.3636 92.0158H11.0606L10.8586 92.1169L10.7576 92.4201V92.7233L10.9596 93.0265L11.8686 93.5319L12.0706 93.734V94.0372L11.7676 94.6436L11.4646 94.8458L11.1616 94.9468L9.94958 95.0479L9.7476 95.3511L9.84857 95.7554L10.1516 96.3618L10.5556 96.665H10.8586L11.1616 96.5639L13.2826 95.6543H13.5856L16.0096 95.5533L16.3126 95.6543L16.6156 95.7554L17.0196 96.1597L17.7266 97.0693L18.3326 97.9789L18.5346 98.3832L18.8376 100.809L19.5446 102.729L19.7466 104.043L20.0496 104.548L20.2516 104.75H20.9586L21.6656 104.852L21.8676 105.054L22.2716 105.559L22.8776 107.176L23.3826 108.086L23.7866 108.49L23.9886 108.591L24.6956 108.894L24.8976 109.299V110.107L24.5946 113.543L24.6956 114.554L24.5946 116.474L24.6956 116.778L24.8976 117.283L24.9986 117.586L25.4026 117.889L26.2106 118.395L26.4126 118.597L26.6146 119.001V119.608V120.719L26.9176 121.225L27.0186 121.629V122.033L26.6146 122.943L26.2106 123.347L25.8066 123.549L23.9886 124.055L23.6856 124.156L23.4836 124.459L23.3826 124.863V125.368L23.4836 126.177L24.2916 129.411L24.0896 129.917L23.7866 130.321L23.5846 130.624V131.23L23.7866 131.938L27.0186 137.193L27.1196 137.8L27.0186 138.305L26.7156 138.811L25.4026 140.226L24.9986 140.529L23.4836 141.337L23.2816 141.539L22.9786 141.944L22.5746 142.853L21.6656 144.066L21.2616 144.47L20.9586 144.673L20.1506 144.976L19.8476 145.077L19.2416 145.784L18.8376 146.088L17.0196 146.896L14.9996 148.412L14.4946 148.513L13.9896 148.412L13.6866 148.513L13.3836 148.715L13.0806 149.322L12.7776 149.625L12.3736 149.827L11.6666 149.726H11.3636L11.1616 149.827L10.6566 150.13L10.5556 150.433L10.4546 150.838L10.6566 151.545L10.7576 151.949L11.0606 152.556L11.1616 153.061L11.0606 153.668L10.8586 154.779L10.5556 155.79L10.1516 156.599L9.84857 157.104L9.44458 157.609V158.014L10.1516 158.115H10.8586L12.1716 157.913H12.7776L12.8786 158.115L12.9796 158.418V158.923V159.631L12.8786 160.035L12.6766 160.439L12.4746 160.844L11.6666 161.248L11.1616 161.652L10.9596 162.966L13.7876 163.37L14.0906 163.572L14.5956 163.876L14.6966 164.179L14.7976 164.482L14.6966 165.088L14.4946 165.897L13.8886 167.009L13.7876 167.312L13.6866 168.019V168.727L13.7876 169.636L13.8886 170.041L14.0906 170.546L14.4946 171.153L14.8986 171.557L15.2016 171.759L17.4236 172.871L17.6256 173.174L17.7266 173.578V174.185L17.6256 175.195L17.4236 175.6L17.0196 175.903L16.6156 176.105L16.3126 176.408L16.2116 176.711V177.014L16.4136 177.52L17.6256 180.148L17.8276 180.855V181.967V182.674L17.5246 183.281L17.3226 183.483L14.5956 185.302L14.1916 185.706L13.9896 186.111L13.8886 186.717L13.9896 187.526L14.7976 189.143L14.9996 189.749L15.2016 190.254V190.962L15.4036 191.265L15.7066 191.669L16.5146 192.074L17.1206 192.276L18.7366 192.478L18.9386 192.579L19.1406 192.882L19.4436 193.185L20.1506 194.904L21.1606 196.42L21.5646 197.228L21.6656 197.632L21.8676 197.835L22.2716 198.037H22.9786L23.8876 197.936L24.4936 198.239L24.9986 199.452L27.1196 200.058L27.6246 200.563L27.5236 200.867L27.1196 201.069L26.8166 201.271L26.7156 201.574L26.8166 202.181L27.0186 202.585L27.4226 203.09L28.5336 203.899L29.4426 204.303L32.7756 203.899L34.1896 204L34.5936 203.798L34.7956 203.494L34.5936 202.585L34.6946 202.282V201.978L34.9976 201.574L35.8056 200.766L36.2096 200.361L36.7146 199.553L36.8156 199.148L37.1186 198.239L37.4216 197.734L38.1286 197.43L39.3406 196.521L39.8456 196.319H41.7646L42.2696 196.217L42.6736 196.015L43.2796 195.106L43.6836 194.6L44.0876 194.398L44.4916 194.499L44.8956 194.6L46.5116 194.701L46.8146 194.803L47.4206 195.106L47.6226 195.207L48.1276 195.308L48.4306 195.207V194.904L48.2286 194.398L47.9256 193.691L47.7236 193.287V193.084L47.9256 192.781L48.3296 192.377L49.1376 191.973L49.5416 191.467L50.1476 190.76L50.4506 190.659H50.7536L51.9656 191.164L52.1676 191.366V191.568L52.0666 191.872L51.4606 192.882L51.1576 193.388L51.0566 193.792V194.095L51.1576 194.297L51.3596 194.499L51.6626 194.701L61.4596 196.723L61.8636 197.026L61.9646 197.228V197.936V198.239L62.2676 198.643L62.7726 198.946H63.2776L63.5806 198.744L63.6816 198.441L64.7926 193.792L65.0956 192.781L65.1966 192.478V191.467V190.76L65.3986 190.052L65.6006 189.749L65.8026 189.345L66.4086 189.042L66.8126 188.839H67.2166L67.5196 188.941L68.0246 189.244L68.6306 189.85L69.1356 190.659L69.5396 191.063H69.9436L71.7616 190.457L72.0646 190.254L72.6706 189.648H72.9736L73.1756 189.749L74.7916 190.659L75.0946 190.558L75.2966 190.457L75.5996 189.951L76.3066 188.435L76.5086 188.132H76.8116L77.0136 188.233L77.4176 188.637L77.8216 188.738L78.5286 188.839L79.3366 188.536H79.8416H80.1446L80.5486 188.941L81.6596 190.861L81.8616 191.164L82.1646 191.366H82.4676H82.7706L83.7806 190.659L85.5986 190.153L85.8006 189.951L86.4066 189.244L86.7096 188.941L87.2146 188.637L87.5176 188.738L88.4266 189.143L89.0326 189.042L89.3356 188.941L89.9416 188.334L90.4466 187.93H90.8506L91.0526 188.031L91.3556 188.536L91.5576 188.839L91.9616 189.042L92.6686 189.244L93.0726 188.839L93.2746 188.435V188.132V187.121V186.818L93.4766 186.111L94.7896 183.685L95.3956 182.978L96.4056 182.169L96.6076 181.967L97.1126 181.158L97.7186 180.552L99.1326 179.238L99.4356 178.733L99.7386 178.429L102.163 176.812L102.466 176.307L102.769 175.903L103.678 173.578L103.981 173.174L104.486 172.669L106.203 171.456L106.506 171.153L106.607 170.546L106.708 169.535V168.929L106.607 168.626L106.405 168.424L106.203 168.222L105.496 168.019L105.294 167.918L105.092 167.716L104.991 167.11V166.099L105.092 165.796L105.395 165.392L106.001 164.785L106.203 164.482L106.91 162.562L107.516 161.45L107.617 160.742V160.439L107.314 159.631V159.429V159.125L107.415 158.822L108.223 157.508L108.324 157.205L108.829 154.072V153.769L108.728 153.466L108.627 153.263L108.122 152.859L108.021 152.657V151.949L108.223 151.545L108.829 150.231L108.93 149.625L108.829 149.423L108.122 148.917L107.92 148.715L107.819 148.412V148.21L108.021 147.907L108.728 146.997L109.233 145.885L109.637 145.38L110.041 145.077L110.344 144.875L112.263 144.673L116.606 141.641L117.212 141.438L117.818 141.337H119.838L120.444 141.236L121.454 140.933L121.858 140.832L122.464 140.933L122.666 141.034L122.868 141.236L122.969 142.146L123.07 142.449L123.373 142.954L123.979 143.561L124.181 144.066V144.774L124.484 145.279L124.888 145.784L125.292 146.391L125.595 146.593L125.898 146.391L125.999 146.088L126.1 145.279L126.302 144.875L126.605 144.369L126.908 144.268H127.11L127.615 144.673L127.918 144.875L128.322 144.976L129.029 144.875L129.433 144.774L129.736 144.571L130.039 144.066L130.14 143.763L130.443 142.146L130.645 141.742L130.847 141.539H131.15L131.453 141.641L131.655 141.944L131.756 142.449L131.655 144.268L131.756 144.571L131.857 144.774L132.16 144.976L137.412 145.986L137.917 145.784L138.119 145.38L138.725 144.167L139.331 143.157L140.341 142.146L140.442 141.944L140.644 141.236L140.543 140.327L140.745 139.821L142.159 137.901L142.664 136.688L142.967 136.082L143.068 135.374V134.667V133.959L142.866 132.746L142.967 132.544L143.169 132.14L143.371 131.938L143.674 131.837L145.795 131.129L146.3 130.927L146.603 130.624L146.704 129.917L146.502 129.411L146.199 128.299L145.896 127.087V126.379L145.795 125.773L145.391 124.661L145.29 124.358L145.593 123.954L145.997 123.448L147.815 122.033L148.118 121.73L148.421 121.124L148.724 120.315L148.926 119.81L149.229 119.709L149.734 120.012H150.138L150.845 119.911L151.552 119.608L152.663 118.395L153.067 117.889L153.37 117.283L153.471 116.98V116.373L153.269 115.868L152.461 114.756L152.259 114.352V113.746L152.36 113.038L152.562 112.634L152.865 112.128L153.471 111.421L153.673 111.118L153.976 110.916L154.481 110.714H154.784H155.491L155.895 110.916L156.4 111.219L156.905 111.522L157.612 111.825L159.127 109.602L159.43 108.894L159.329 108.591L159.026 108.086L158.925 107.681L159.026 107.479L159.228 107.176L160.137 105.862L161.551 102.022L158.117 100L157.814 99.596L157.511 99.0906L157.814 98.6864L158.622 97.8778L158.723 97.5746V97.1703L158.622 96.9682L158.319 96.7661L157.713 96.665L157.006 96.7661H156.602L156.097 96.665L155.289 96.2607L154.885 95.9575L154.582 95.6543L154.38 95.149L154.279 94.5426V93.734L154.178 93.1276L153.976 92.8244L153.774 92.6223L152.461 91.5105L152.259 91.0052V90.6009L152.36 90.2977L152.663 89.7923L153.269 88.8827L153.471 88.7817L153.774 88.6806L154.986 88.8827L155.289 88.6806L155.491 88.4785L155.592 87.872L155.693 86.6592L155.592 85.4464L155.289 84.9411L154.986 84.6378H152.663L151.956 84.5368L151.653 84.4357L151.148 84.0314L150.643 83.425L148.623 80.6962L147.916 80.1908L146.3 78.5737L145.694 78.1695L145.189 77.9673L143.977 78.0684L142.866 78.4727L142.361 78.7759L142.26 79.0791L142.159 79.9887L142.058 80.2919L141.755 80.6962L141.654 80.9994V81.3026V81.909V82.1111L141.452 82.3133L140.947 82.5154L140.745 82.7175L140.038 83.7282L139.634 84.2336L139.432 84.3347H139.028L136.806 84.1325L136.2 84.2336L135.695 84.5368L135.291 84.9411L134.988 85.4464L134.786 85.6485L134.483 85.7496L133.877 85.8507L133.574 85.9517L133.17 86.2549L132.564 86.9624L132.362 87.1646L132.16 87.3667H131.857L131.049 87.2656L130.746 87.3667L130.544 87.4678L130.039 87.872L129.534 88.0742H129.231L125.797 87.2656L125.292 87.3667L124.888 87.6699L124.282 88.3774L123.676 88.8827L119.333 87.771L118.222 87.6699H117.414L117.111 87.872L116.808 87.9731L116.202 88.1752L115.798 87.9731L115.495 87.872L114.99 87.4678L114.485 87.2656H113.879L113.475 87.1646L113.172 87.0635L112.97 86.8614L112.667 86.356L112.465 85.8507L112.566 84.6378L112.465 84.2336L112.263 83.8293L111.96 83.6272L111.556 83.5261L110.445 83.6272L110.142 83.425L109.839 83.2229L108.223 81.6058L107.92 81.1004L107.819 80.7972L107.92 80.494L108.021 79.7866L108.223 79.4834L108.425 79.3823L109.031 79.4834L109.233 79.3823L109.435 79.1802L109.839 78.6748L110.041 78.0684L110.142 77.6641V76.9566L110.041 76.047L109.738 74.8342L109.536 74.3288L109.334 73.8235L108.93 73.3182L108.223 72.5096L106.91 71.3979L106.708 71.0947V70.2861V69.8818L106.506 69.6797L106.102 69.5786L105.294 69.4776L104.486 69.3765L104.183 69.1744L103.981 68.8712V68.5679L104.183 67.8605L104.284 67.5573L104.183 67.2541L103.779 66.7487L103.274 66.0412L103.072 65.5359L102.87 65.2327L102.466 65.1316H102.163L101.658 65.4348L101.052 65.9402L100.749 66.0412L100.143 66.2434H99.5366L96.5066 66.0412H95.7996L95.1936 66.2434L94.3856 67.0519L93.9816 67.153L93.2746 67.0519L90.6486 66.3445L90.3456 66.4455L90.1436 66.5466L89.7396 67.4562L89.4366 67.6583L89.1336 67.8605L88.6286 67.9615L88.3256 67.8605L88.1236 67.6583L87.7196 67.153L87.4166 66.7487L86.8106 66.1423L86.3056 65.9402L85.9016 65.8391L84.2856 66.3445H83.6796L83.3766 66.1423L83.1746 65.9402V65.5359L83.3766 65.0306L84.1846 63.6156L84.6896 62.4028L85.0936 61.3921L85.1946 60.6846L85.4976 58.7643V58.5622L85.2956 58.1579L84.7906 57.6525L82.9726 56.2376L82.4676 55.9344L79.4376 54.8226L78.9326 54.5194L78.5286 54.2162L78.4276 53.913L78.3266 53.3066V52.5991L78.4276 52.1949L78.7306 50.6788L79.0336 49.1628V48.4553L78.9326 47.7478L78.7306 46.8382L78.5286 46.3329L78.2256 45.9286L76.8116 44.6147L76.3066 44.3115L75.8016 44.2104H75.4986H74.9936L74.2866 44.0083L73.6806 43.503L72.9736 43.0987H72.6706L72.4686 43.3008L71.9636 43.7051L71.6606 43.9072H71.0546L70.7516 43.7051L70.6506 43.503L70.5496 43.0987L70.3476 40.4709L70.4486 35.0132L70.5496 34.2047L71.5596 29.2523L71.6606 28.5448L71.5596 27.8373L71.4586 27.2309L70.7516 25.5128L70.6506 25.0074L70.7516 24.6031L70.9536 24.401L71.2566 24.2999L72.3676 24.401H72.6706L72.8726 24.1989L72.9736 23.9967L73.0746 23.6935Z" fill="#F6D375" fill-opacity="0.3" stroke="#18181B" stroke-linejoin="round"/>
</svg>
