<svg width="192" height="157" viewBox="0 0 192 157" fill="none" xmlns="http://www.w3.org/2000/svg">
<path d="M159.383 35.914L159.888 37.1269V41.8771L159.787 43.0899L159.686 43.7974L159.282 44.3027L156.757 46.7284L156.252 47.5369L155.646 48.4465V48.6487L156.454 50.9732L156.555 51.2765L156.858 53.7021L157.161 54.2074L157.464 54.5106L157.666 54.7128L158.272 55.8245L158.474 56.1277L158.777 56.2288L159.888 56.532L160.393 56.9363L160.898 57.5427L161.302 57.947L161.908 58.2502L162.615 58.3512H164.938L165.342 58.5534L165.746 58.7555L166.453 59.8673L166.756 60.1705L170.291 61.8886L170.897 61.9897L171.503 61.8886L172.21 61.3833L172.816 61.1812L173.119 61.2822L173.422 61.3833L173.826 61.5854L174.735 62.4951L175.139 63.2025L175.24 63.8089L175.341 64.5164L175.139 66.9421V68.256L175.24 68.6602L175.543 70.0752L175.846 70.5806L176.048 70.9848L176.25 71.187L177.361 71.9955L177.563 72.2987L177.664 72.6019L177.765 73.7137L177.866 74.3201L178.068 74.6233L178.472 74.7243L179.987 75.0276L180.189 75.3308L180.29 75.634V76.0382L180.492 76.3415L180.795 76.4425L183.623 77.3521L184.33 77.4532H184.633L184.835 77.2511L184.936 76.9479L185.138 76.2404L185.34 76.0382L185.542 75.8361L185.845 75.735H187.562L187.966 75.8361L188.168 76.1393L188.269 76.3415L188.471 77.5543V77.8575L188.269 77.9585L187.764 78.2617L187.663 78.4639L187.562 78.9692L187.764 79.5756L187.966 80.081L190.491 84.8312L190.895 86.044L191.097 86.7515L190.592 87.0547L189.38 87.2569H186.754L186.451 87.3579L186.35 87.5601L186.451 88.1665L186.653 88.4697L187.764 89.0761L188.673 90.0868L189.885 90.7943L190.491 91.4007L190.693 91.906L190.592 92.3103L190.491 92.4113L190.188 92.5124L189.279 92.6135L188.976 92.7146L188.774 92.9167L188.471 93.422L188.269 93.6242H187.966L184.734 92.8156L184.431 92.7146L184.128 92.8156L183.623 93.0178L182.714 93.2199L182.512 93.422L182.411 93.6242L182.108 94.3317L182.007 94.7359V95.3423L182.209 95.8477L182.613 96.6562L182.714 97.2626L183.017 97.5658L183.724 97.9701L184.128 98.2733L184.229 98.5765V98.8797L184.027 99.284V99.6883L184.633 100.497L184.734 100.901L184.633 101.305L183.219 103.226L181.805 105.55L180.088 107.471L179.179 108.178L176.25 109.694L175.038 109.896L169.584 109.391L169.18 109.29L168.574 108.987L167.968 108.481L167.463 107.774L166.958 107.471L166.655 107.369L166.352 107.471L165.847 107.673L163.019 110.806L162.514 111.614L162.11 112.423L161.908 113.231V113.737V114.04L162.009 114.343L163.12 116.264L163.322 116.769L163.524 117.678L163.827 118.689L163.928 119.7L163.827 120.306L163.625 120.812L161.908 119.7L161.302 119.397L160.696 119.195H160.393L159.989 119.296L159.686 119.498L159.181 120.003L158.979 120.508L158.676 121.62L158.373 122.227L158.07 122.328L157.767 122.53L157.06 122.429L156.757 122.328L156.555 122.024L156.454 121.822L156.555 121.519L156.757 121.317L157.161 120.913L157.262 120.711V120.407L157.161 120.205L156.959 120.003L155.343 119.397H155.04L154.737 119.498L154.232 119.902L153.828 120.003L152.414 119.902L152.111 120.003L151.606 120.205L151.202 120.508L150.596 121.115L150.091 121.822L149.687 122.126L149.182 122.328L144.637 123.743L142.718 124.046L132.618 128.493L132.012 128.19H131.709L131.406 128.291L131.204 128.695V128.998L131.305 129.605L131.204 130.312L131.103 130.615L130.396 131.626L129.588 132.434L128.174 133.647L127.972 133.849L127.77 134.355L127.871 134.86L128.275 134.961H128.881L129.083 135.062L129.184 135.264V135.568L128.881 135.871L128.477 136.073H127.77L126.76 136.477L126.154 136.983L125.851 137.286L125.447 137.892L124.639 140.318L124.134 141.43L123.932 142.137L123.831 143.249V143.855L124.033 144.361L125.649 145.978L125.851 146.18L126.053 146.685L126.255 148.504L126.154 148.808L125.851 149.111L125.245 149.515L124.134 150.728L124.033 151.031L123.932 151.334V151.941L124.033 152.244L124.235 152.446L124.942 152.951L125.043 153.255L125.144 153.457L125.043 153.76L124.639 154.164L123.427 155.377L121.811 156.489L121.104 156.388L119.387 154.164L117.67 153.255L114.741 152.749L113.731 152.345L113.428 152.042L112.721 151.435L112.418 151.233H112.014L111.206 151.334L110.802 151.233L104.54 146.786L104.035 146.281L102.924 144.563L102.52 144.057L101.611 143.552L100.702 143.451L98.7828 143.35L97.7728 143.047L96.1569 141.43L94.4398 141.733L94.3389 142.036L93.9349 142.238L93.4299 142.44L92.4199 142.541L91.8139 142.642L91.5108 142.845L91.2078 143.451L91.0058 144.967L90.9049 145.371L90.7028 145.674L90.2989 145.978H90.0969L89.8949 145.776V145.27L89.6928 144.664L89.2889 143.653L89.0869 143.451L88.4808 142.845L88.0769 142.44L86.0569 141.43H85.5519L85.1478 141.531L84.5419 142.642L84.3399 142.845L83.9358 143.047L83.3299 143.249L83.0269 143.148L82.8249 142.845L82.5219 142.541L82.0169 142.036L79.5928 141.025L79.1889 140.722L78.7849 140.318L78.1789 139.812L76.4619 139.004L75.6539 138.802H75.0478L74.5428 139.711L74.0378 140.015H73.8358L73.6339 139.812L73.4319 139.408L73.1289 139.206L72.1189 138.499L71.9169 138.296L71.7149 137.791L70.7049 136.477L70.5028 136.275L69.6949 135.568L69.3919 135.264L69.4928 135.062L69.9978 134.759L70.3008 134.355L70.5028 134.153V133.849V132.94V132.637L70.7049 132.536L71.5128 132.333L71.8158 132.232L72.0178 132.03L72.1189 131.727L72.0178 131.424L71.7149 131.121L70.4019 130.716L69.9978 130.514L69.6949 130.211L69.4928 129.402L69.2908 129.301L64.0389 128.796L63.6349 128.493L63.4328 128.19L62.8269 127.179L62.4228 126.168L61.4128 124.551L61.0089 124.147L60.6049 123.743L54.7469 119.296L40.8089 112.423L41.0108 108.38V106.965L40.9099 106.258L38.5869 100.093L38.2839 99.5872L36.0619 96.6562L35.7589 96.252L35.1528 95.4434L34.6478 94.4327L34.5469 93.9274V93.5231L36.7689 89.7836L36.8699 89.5814L37.3749 89.1772L38.5869 88.4697L38.6878 88.2675L38.8899 87.8633L39.0919 87.3579L39.1928 86.4483V85.8419V85.4376L38.7889 83.9216L38.3849 83.3152L36.9708 82.2034L36.6678 82.0013L36.4658 81.597L36.1628 80.9906L36.0619 80.5863L35.9608 78.0596L35.7589 77.5543L35.4558 77.15L29.3958 74.8254L29.0928 74.5222L28.6889 74.219L28.4869 73.5115L28.5878 71.187V70.6816L28.4869 69.772L28.3858 69.2667L28.1839 68.9634L26.3658 67.4474L26.0628 67.3463L25.8608 67.4474L25.3558 67.6496L24.8508 67.7506L24.5478 67.4474L24.3458 67.0432L23.9419 66.4367L23.1339 65.6282L22.9319 65.426L22.6289 65.325H22.4269L22.1239 65.426L21.6189 65.7293H21.3158H21.1139L20.6089 65.426L19.5989 64.1122L17.5789 60.4737L17.2758 59.6651L17.0739 58.9577L17.1749 58.6545L17.3769 58.4523L17.5789 58.2502L17.8819 58.1491L18.1849 58.2502L18.6899 58.4523H18.8919L19.2958 58.2502L19.4979 57.947L19.5989 57.4416L19.4979 55.9256V55.1171L20.0028 53.2978V52.7925L20.1039 52.2871L20.0028 51.4786L19.8008 51.0743L19.5989 50.7711L18.2858 49.9626L18.0839 49.7604L17.6799 49.154L15.1549 44.1006L14.8519 43.9995H14.5489L13.7408 44.3027H13.4379H13.1349L11.8219 43.6963L11.4179 43.4942L11.0139 43.191L10.8119 42.7867L9.70084 38.845L9.59986 38.3397L9.80188 38.1375L11.7208 37.5311L11.9229 37.2279L12.1249 36.7226L12.0239 35.7119L11.9229 35.3076L11.8219 35.0044L11.4179 34.6001L11.2158 34.4991H10.9129L10.4079 34.8023L10.1049 35.2066L9.59986 35.5098L9.09486 35.813H8.79188L8.48889 35.6108L7.47889 34.0948L7.17584 33.8927L6.56986 33.5895L5.35785 33.3873L5.05486 33.1852L4.65084 32.7809L4.44889 32.2756L4.24688 31.6692L4.14584 31.2649L3.94389 30.9617L3.74188 30.7595L2.93389 29.7489L2.63084 28.8392L2.32785 28.2328L2.02486 27.9296H1.72188H1.21688L0.61084 27.8286L2.12584 25.6051L2.42889 24.8976L2.32785 24.5944L2.02486 24.089L1.92389 23.6847L2.02486 23.4826L2.22688 23.1794L3.13584 21.8655L4.54986 18.0249H7.88285L8.18584 18.126L8.58986 18.5303L8.89285 18.6313H9.19584L9.70084 18.4292L10.3069 18.0249L10.9129 17.3174L12.0239 15.3971L12.4279 14.9929L12.8319 14.5886L16.3669 12.9715L17.7808 12.8704L18.1849 12.9715L18.3869 13.1736L18.8919 13.78L19.2958 14.2854L19.4979 14.3864L19.8008 14.2854L21.5178 13.0725L21.9219 12.9715H22.7299H23.1339L23.4369 13.0725L23.7399 13.4768L23.9419 14.0832L24.1439 14.9929L24.3458 15.4982L24.6489 16.0035L24.8508 16.3067L26.1639 16.711L31.8199 16.9132L34.0419 16.5089H34.5469L34.8499 16.711L35.0519 17.2164L35.3549 17.3174H37.3749L42.1219 14.6896L43.0308 14.4875L45.0508 14.2854L45.5558 14.0832L45.8589 13.8811L46.1619 13.5779L46.4649 12.7693L46.7678 11.8597L47.0708 11.4555L47.3739 11.0512L48.6869 10.2426L49.5958 9.93943L49.8989 9.73728L50.2019 9.43409L50.5049 8.4234L50.8078 8.01912L51.1108 7.61485L51.8178 7.21057L53.1308 6.60417L53.9389 5.59348L56.0599 1.44966L58.1808 2.66248L63.5339 3.36998L64.1399 3.2689L64.3419 3.06677L64.6449 2.46035L64.7458 2.15714L65.1499 1.75287L65.7558 1.3486L67.2708 0.843262L68.0789 0.742188L68.5839 0.843262L68.7858 1.0454L69.2908 1.44966L69.7958 1.75287L71.3108 2.46035L71.7149 2.66248L88.6828 6.19988L92.9249 8.12019L93.5308 8.22125H93.9349L94.4398 7.51378L96.0558 7.10951L98.3789 7.00843L99.1869 6.70522L99.6919 6.40203V6.09882L99.4899 5.89669L97.7728 4.886L97.6719 4.48172L97.7728 4.17851L98.0758 3.77424L101.005 2.46035L102.924 1.95501L103.429 2.05608L103.732 2.15714L104.338 3.16783L105.146 3.97638L106.964 5.49241L111.206 7.41272H111.61L111.913 7.31164L112.014 7.00843L111.913 6.09882L112.014 5.79561L112.216 5.59348L112.519 5.29027L113.024 5.08814L113.428 5.1892L114.64 5.49241L114.943 5.39135L115.145 5.1892V4.78493L115.044 4.17851L115.145 3.87532L115.347 3.67317L116.559 3.36998L116.963 3.2689L117.266 2.96569L117.771 2.66248L118.983 2.46035L119.488 2.15714L119.791 1.85395L119.892 1.44966L120.094 1.14646H120.498L122.316 1.85395L122.518 2.05608L122.72 2.25822V2.56142L122.518 4.38066L122.619 8.82767V9.43409L122.821 9.93943L123.023 10.5458L124.336 12.3651L126.255 14.5886L128.679 16.711L129.083 17.1153L129.386 17.6206L129.588 18.126L129.689 18.7324L129.588 19.3388L129.083 20.2484L128.881 20.9559L128.78 21.5623L128.982 23.8869L129.083 24.4933L129.184 24.7965L129.487 25.2008L129.891 25.6051L130.194 25.7061L130.396 25.6051L130.8 24.9986L131.103 24.7965L131.709 24.5944L132.113 24.6954L132.416 24.8976L132.719 25.4029V25.7061L132.82 26.3125V26.6157L133.022 26.9189L133.527 27.4243L133.729 27.7275V28.0307L133.931 28.435L134.234 28.9403L136.254 30.4563L136.658 30.8606L136.86 31.366L136.961 31.9724V32.6798L136.759 33.3873L136.355 33.8927L135.85 34.0948L134.638 34.2969L134.436 34.398L134.234 34.7012L134.133 35.813V36.2172L134.234 36.7226L134.739 37.329L134.941 37.6322V38.0365V38.744L135.042 39.2493H135.345H135.547L136.355 38.5418L136.658 38.3397L137.668 37.9354L138.577 37.8343L144.031 38.6429L146.051 38.5418L146.253 38.4408L146.657 38.0365L146.859 37.7333L147.061 37.1269L147.162 36.3183L147.364 36.0151L147.566 35.7119L147.97 35.5098H148.273L148.677 35.7119L149.485 36.4194L149.889 36.6215H150.192L151.202 36.1162L152.616 34.9034L154.131 34.7012L159.383 35.914Z" fill="#F6D375" fill-opacity="0.3" stroke="#18181B" stroke-linejoin="round"/>
</svg>
