<svg width="171" height="157" viewBox="0 0 171 157" fill="none" xmlns="http://www.w3.org/2000/svg">
<path d="M133.606 25.3888L133.707 28.8251L134.01 29.7347L134.616 30.0379L135.323 30.139H135.929L137.343 29.9369H137.747L137.949 30.0379L138.05 30.2401L138.151 30.8465L138.252 32.0593L138.353 32.5646L139.969 36.001L140.676 38.1234L141.08 38.6288L141.383 38.932L142.797 39.2352L143.201 39.4373L143.302 39.6394V39.8416L143.1 40.0437L142.595 40.2459L142.09 40.448L141.787 40.5491L141.686 40.8523V41.5598L141.888 41.964L142.09 42.2672L142.292 42.4694L143.302 42.6715L143.504 42.8736V43.1768L143.302 44.1875L143.201 44.6929L143.302 45.1982L143.504 45.5014L143.706 45.6025L144.312 45.5014L146.029 44.7939L146.635 45.1982L147.544 46.0068L149.766 48.4324L150.675 49.342L151.382 49.7463L151.584 49.5442L151.988 49.241L153.402 48.0281H153.806L154.21 48.1292L156.634 49.6452L157.038 50.0495L158.553 51.9698L162.896 55.8104L163.098 56.0126L164.209 57.7307L164.512 58.0339H164.815L165.219 57.7307L165.32 57.2254L165.522 57.0232L165.825 56.9222L168.148 57.3264H169.158L169.562 57.4275L169.663 57.6297V57.9328L169.461 58.2361L168.653 59.8531L168.451 60.4596V61.1671V61.4702L167.845 62.582L167.643 63.2895L167.542 63.5927V64.1991V64.9066L167.744 65.6141L167.643 65.9173L167.34 66.3216L166.936 66.6247L166.431 66.7258L166.33 66.6247L166.128 66.1194L165.724 65.4119L165.118 64.8055L164.916 64.7045L164.411 64.5023H163.906L163.704 64.6034L163.3 64.9066L162.896 65.3109L162.694 65.9173L162.492 66.6247L162.189 67.2312L161.684 68.0397L161.482 68.6461V68.9493V69.859V70.1621L161.381 70.4653L161.179 70.6675L160.977 70.8696L158.957 71.5771H157.745L156.735 71.476L156.028 71.2739L155.422 70.6675H155.22L154.614 70.5664H154.311L153.806 70.0611L153.301 70.1621L152.796 70.3643L152.594 70.6675L152.493 70.9707V71.8803L152.796 72.5878L153.604 74.306L153.705 74.8113L153.806 75.3167L154.008 77.4391L153.907 78.0455L153.503 78.3487L152.998 78.5508L150.069 78.753L149.766 78.854L149.463 78.9551L149.261 79.2583L149.463 79.7637L149.766 80.1679L151.079 81.5829L151.584 81.8861L154.008 82.8968L155.018 83.5032L155.22 83.7053L155.523 84.1096L156.331 85.5246L156.836 86.4342L157.442 88.9609L157.644 89.4662L157.947 89.7694L159.866 91.3865L160.068 91.4876H160.27L160.674 90.7801L161.078 90.4769L161.482 90.578L162.391 91.5887L163.3 92.1951L163.502 92.3972L163.906 92.9026L164.108 93.2058L164.007 93.509L163.805 93.7111L163.199 94.3175L162.795 94.7218L162.593 95.2271L163.704 97.1475L163.805 97.6528L163.704 98.0571L162.896 98.6635L162.391 98.8656H162.189L161.886 98.7645L161.078 98.3603H160.775L160.169 98.7645L159.967 98.9667L158.351 100.483L158.149 100.685L157.846 101.19L157.745 101.594L157.846 102.201L159.462 105.334L158.957 105.435L158.351 105.738L156.432 107.254L155.826 107.659L153.907 108.366L150.978 111.297L149.16 111.499L149.665 113.521L148.857 115.34L147.746 117.159L147.241 119.18L146.837 121.303L145.827 123.526L144.413 124.84L142.999 124.436V123.83H143.403L144.514 124.335L145.625 122.111L146.231 119.18V117.765L145.827 117.361L143.807 114.935L142.898 114.43L141.08 113.824L140.373 113.217L139.363 113.824L138.353 113.723L136.838 113.217L135.929 113.521L135.323 114.127L134.818 114.733L134.414 114.935H130.677L128.354 116.35L125.627 116.957L123.809 117.765L122.193 119.079L118.355 123.122L117.345 124.941L116.941 127.266H116.537V126.154L116.335 125.851L115.83 126.154L115.224 126.356L115.123 127.064L114.82 126.255L115.022 125.952L115.123 125.447L115.022 125.042L114.315 124.436L113.81 123.526L113.507 123.122L113.103 122.819L111.992 122.314H110.982L108.962 122.819L104.922 122.212L97.2461 123.627H95.9331L88.5602 127.771L86.9442 129.186L82.5002 134.442L80.6822 136.16L74.0161 139.495L73.0061 140.304L72.0972 141.314L70.3802 143.74L69.5722 144.549L67.5522 145.964L66.7442 146.772L61.3911 155.565L61.0882 155.969L60.2802 155.464L61.7952 152.836L63.8152 150.714L64.6231 149.4L64.8252 147.379L63.9161 148.389L62.9061 149.198L61.7952 149.299L60.4822 148.187L59.9772 146.368L60.2802 144.245L61.3911 141.112L60.9872 140.91L60.0781 140.809L59.4722 140.607L59.0681 140.405L58.3611 139.697L57.4522 139.091L56.7452 137.979L56.2402 136.564L56.0382 135.048L54.8261 136.564L55.2302 138.181L56.2402 139.697L56.7452 140.91L56.9472 141.921L57.2502 142.527L57.4522 143.235L57.2502 144.448L56.7452 145.357L54.8261 147.379L51.5942 152.432L51.3922 152.735L49.3722 152.331L48.8672 151.826L48.7661 150.309V150.006L48.4632 148.389V147.783L48.5642 147.176L48.8672 146.267V145.862V145.458L47.4532 139.596L47.1502 138.889L46.7461 138.586H45.2311L44.6252 138.282L43.7161 137.777L43.3122 137.676L42.5042 137.171L41.2922 136.059L40.8882 135.958L38.2622 136.261L37.5552 136.16L37.3532 136.059L37.2522 135.857V134.745L37.3532 134.442L37.7572 134.139L37.9592 133.835L38.0602 133.532V133.027L37.8582 132.825L37.5552 132.622L34.9292 132.42L33.0102 132.521L32.5052 132.42L32.2022 132.218L32.0002 132.016L31.6972 131.106L30.3842 128.984L29.9802 128.277V127.67L30.0811 127.165L30.3842 126.659L30.9902 126.053L31.0911 125.75L31.1922 125.143L31.0911 124.335L30.8892 123.526L30.5861 122.819L30.2832 122.516L29.8792 122.314L28.6672 122.111L28.2632 122.01L27.8592 121.808L26.8492 121L26.5461 120.899L26.0411 121.101H25.6372L25.1322 120.899L24.8292 120.696L24.7282 120.393L24.6272 119.484L24.7282 118.877L25.0311 118.473L25.2332 118.271L25.7382 118.17L27.2532 118.069L27.7582 117.968L27.9602 117.765L28.2632 117.26L28.5661 116.755L28.9702 116.452L29.4752 116.249L29.6772 116.148L30.0811 115.643L30.3842 114.632L30.5861 114.127L30.9902 113.622L31.1922 113.116V111.196L31.3942 110.59L31.4952 110.488L31.7982 110.286L32.3032 110.185L33.8182 109.579L34.0202 109.377L34.1211 108.972V108.366L33.8182 107.052L33.6161 106.547L33.4142 106.041L33.0102 105.738L32.7072 105.637L32.1011 105.536L31.6972 105.435L31.2932 105.132L30.9902 104.627L30.3842 101.999L30.1822 101.493L29.9802 101.19L29.6772 101.089L27.0511 100.18L26.5461 99.8763L25.8392 99.3709L25.3342 99.0678L23.9202 98.7645L23.6172 98.5624L23.4152 98.2592L23.3142 98.0571L23.2132 96.8442L23.0111 96.0357L22.8092 95.6314L22.7082 95.3282L22.4052 95.1261L21.6982 95.025L21.1932 94.7218L20.9911 94.5197L20.8902 94.2164L20.7892 93.7111L20.6882 90.8812L19.7792 87.0406L19.5772 86.6363L19.2742 86.4342L18.5672 86.232L18.0622 85.9288L17.8602 85.6256L17.7592 85.3224V84.716L17.4561 83.6042V82.9979L17.3552 82.0882L17.5572 80.3701V79.7637L17.0522 77.5401V76.9338L17.1532 76.6305L17.2542 76.4284L17.5572 76.1252L17.6582 75.9231L17.7592 75.5188V74.9124L17.6582 74.6092L17.5572 74.306L16.7492 73.6995L16.3452 73.2953L16.2442 72.9921L16.1432 72.3857L16.2442 71.6782L16.3452 70.9707L16.7492 70.5664L17.5572 70.2632L17.8602 69.96L17.9611 69.5557L17.7592 69.1515L17.3552 69.0504L13.5172 69.4547L13.0122 69.6568L12.8102 69.859L12.7092 70.1621L12.6082 70.7686L12.5072 71.0718L12.0022 71.7793L11.6992 72.3857L11.5982 72.5878L11.0932 72.7899L10.4872 72.5878L9.6792 72.1835L9.37615 72.0824L8.56816 72.1835L8.36615 72.2846L7.76017 72.7899L7.25517 72.9921H6.95219H6.6492L6.24517 72.7899L6.1442 72.5878L6.04316 72.2846L5.94219 70.9707L5.84115 70.3643L5.23518 68.9493L2.40719 59.651L0.993164 55.7094L7.45719 53.5869L14.5272 52.0709L22.2032 48.4324L22.8092 48.2303L25.6372 48.7356L30.3842 50.757L36.1411 51.8687L39.7772 52.0709L40.2822 51.9698L40.7872 51.3634L41.0902 50.757L41.1911 50.4538L41.5952 48.7356V48.1292L41.2922 47.6239L40.9892 47.2196L39.8782 46.31L39.6761 46.1078V45.9057L39.7772 45.2993L40.5852 43.1768L40.9892 41.7619L41.3932 39.3362L41.7972 38.0224L42.4032 34.0807V33.4743L42.2011 33.3732L41.8982 33.1711L40.5852 32.9689L39.5752 32.7668L39.2722 32.5646L39.1711 32.3625V32.0593L39.3732 30.9476V30.6443L39.1711 29.8358V29.5326V29.1283L39.3732 28.623L39.8782 27.7134L40.0802 27.3091V26.8038L39.9792 26.5005L39.6761 26.0963L35.3332 23.4685L34.9292 23.0642L34.7272 22.5589V21.9524L34.9292 21.1439L35.1311 20.5375L35.4342 20.1332L36.9492 18.8193L37.2522 18.6172L39.6761 18.1119L40.2822 17.8087L40.5852 17.5054L40.7872 17.1012L40.8882 16.3937L40.7872 16.0905L40.6861 15.5851L40.3832 15.0798L40.0802 14.9787L38.0602 14.4734L37.4542 14.1702L37.1511 13.7659L36.8482 13.2606V12.9574V12.2499L36.6461 11.7445L36.4442 11.6435L36.1411 11.5424H35.5352L35.3332 11.4413L35.1311 11.3403L35.0302 11.0371V10.6328L35.2322 10.1274L35.5352 9.9253L36.2422 9.41995L36.4442 9.11676L36.5452 8.91461L36.6461 6.89324L36.7472 6.3879L36.9492 5.88256L36.8482 5.57936L36.5452 4.87187L36.3432 4.06333L36.2422 3.65907L36.3432 3.25477L36.5452 2.44623L36.8482 2.24408L37.1511 2.04196H37.7572L38.0602 2.14304L38.2622 2.34516V2.54731V3.55799V4.16441L38.3632 4.7708L38.5652 5.27614L38.7672 5.47829L39.0702 5.57936H42.3022L43.7161 4.66975L45.6352 3.05265L46.4432 2.54731L47.0492 2.34516L47.6552 2.44623H48.1602L49.1702 2.34516L49.6752 2.04196L49.9782 1.83981L51.1902 1.53662H52.0992L52.7052 1.6377L54.2202 2.34516H54.7252L55.2302 2.24408L56.1392 1.94089L59.1692 1.43555H59.6742L60.8861 1.83981L64.5222 3.65907L73.3092 5.17509L74.1172 5.68044H74.6222L75.1272 5.57936L76.0361 5.27614L76.6422 4.87187L77.8542 3.55799L78.7631 2.8505L79.2681 2.54731L81.5911 1.94089L83.2072 1.73874L83.8131 1.83981L84.4192 2.04196L84.8231 2.44623L85.2272 3.15372L85.9342 3.96226L86.4392 4.26545L89.1661 4.87187L89.4692 4.97295L89.8731 5.37721L90.6811 6.69112L91.1861 6.79217L91.7922 6.69112L94.8222 5.47829L98.1552 4.66975H98.7611L99.1652 4.7708L99.3672 4.87187L99.5692 5.07402L99.7711 5.27614V5.57936V5.88256L99.5692 6.99432L99.4681 7.39858L99.5692 8.005L99.8722 8.71249V9.01569V9.72318L99.9731 9.9253L100.276 10.1274H100.882L101.387 10.0264L103.205 8.71249L103.609 8.61142L103.912 8.71249L104.114 9.21784L104.013 9.52103L103.71 10.1274L103.003 10.936L102.7 11.4413L102.599 11.7445V11.9467L102.902 12.2499L103.71 12.452L104.013 12.5531L104.215 12.6542L104.518 13.1595L104.619 13.7659L104.72 14.8776V15.2819L104.619 16.1916L104.72 16.3937L105.427 16.6969L105.629 16.899L105.831 17.2022L106.235 17.5054L107.851 17.4044H107.952V17.7076L107.851 18.2129L107.75 18.8193L107.952 19.6279V19.9311V20.2343L107.548 21.1439L107.043 22.5589L106.942 22.9631L106.639 23.3674L106.336 23.4685L106.033 23.3674L105.629 22.9631L105.427 22.761H104.922L104.821 22.8621L104.72 23.1653L104.821 23.7717L104.922 23.9738L105.427 24.277L105.629 24.4792L105.73 25.0856L105.831 25.2877L106.336 25.4898L106.538 25.692L106.942 26.0963H107.346L109.871 25.8941L110.376 25.692L110.578 25.4898L110.881 24.8835L111.083 24.4792L111.487 23.9738L111.891 23.8728L112.194 23.7717H112.8L113.002 23.9738L113.103 24.4792L113.305 26.2984L113.406 26.5005L113.911 26.7027L115.224 26.8038L115.527 27.0059L115.729 27.1069L116.335 27.7134L116.739 27.8144L117.446 27.9155H118.658L119.163 27.8144L119.567 27.5112L119.971 26.9048L120.173 26.5005L120.779 25.9952L121.284 25.7931L121.587 25.692L122.193 25.7931L122.597 26.1973L122.9 26.6016L123.102 26.8038L123.304 26.9048L133.606 25.3888Z" fill="#F6D375" fill-opacity="0.3" stroke="#18181B" stroke-linejoin="round"/>
</svg>
