<svg width="30" height="30" viewBox="0 0 30 30" fill="none" xmlns="http://www.w3.org/2000/svg">
<rect width="30" height="30" rx="15" />
<path d="M9.5 10.5L6 19M9.5 10.5L13 19M9.5 10.5L13.5525 9.39478M6 19C6 20.933 7.567 22.5 9.5 22.5C11.433 22.5 13 20.933 13 19M6 19H13M20.5 7.5L17 16M20.5 7.5L24 16M20.5 7.5L16.4475 8.60522M17 16C17 17.933 18.567 19.5 20.5 19.5C22.433 19.5 24 17.933 24 16M17 16H24M16.4475 8.60522C16.2742 7.96832 15.6918 7.5 15 7.5C14.1716 7.5 13.5 8.17157 13.5 9C13.5 9.13663 13.5183 9.26899 13.5525 9.39478M16.4475 8.60522C16.4817 8.73101 16.5 8.86337 16.5 9C16.5 9.82843 15.8284 10.5 15 10.5C14.3082 10.5 13.7258 10.0317 13.5525 9.39478" stroke="black" stroke-width="1.5"/>
</svg>
