<svg width="30" height="30" viewBox="0 0 30 30" fill="none" xmlns="http://www.w3.org/2000/svg">
<rect width="30" height="30" rx="15" />
<path d="M13.6363 7.5C12.4227 7.5 11.2363 7.85989 10.2272 8.53415C9.21805 9.20842 8.43154 10.1668 7.9671 11.288C7.50266 12.4093 7.38114 13.6431 7.61791 14.8334C7.85468 16.0237 8.43911 17.1171 9.29728 17.9753C10.1555 18.8335 11.2488 19.4179 12.4392 19.6547C13.6295 19.8914 14.8633 19.7699 15.9846 19.3055C17.1058 18.841 18.0642 18.0545 18.7384 17.0454C19.4127 16.0363 19.7726 14.8499 19.7726 13.6363C19.7725 12.0089 19.1259 10.4481 17.9752 9.29739C16.8244 8.14664 15.2637 7.5001 13.6363 7.5Z" stroke="#18181B" stroke-width="1.5"/>
<path d="M18.2144 18.2148L22.4999 22.5004" stroke="#18181B" stroke-width="1.5"/>
</svg>
