<svg width="30" height="30" viewBox="0 0 30 30" fill="none" xmlns="http://www.w3.org/2000/svg">
<g clip-path="url(#clip0_1535_14976)">
<path d="M41.6665 6.92319H-0.000167847V9.23061H41.6665V6.92319Z" fill="#F5F5F5"/>
<path d="M41.6665 11.5391H-0.000167847V13.8465H41.6665V11.5391Z" fill="#F5F5F5"/>
<path d="M41.6665 16.1517H-0.000167847V18.4591H41.6665V16.1517Z" fill="#F5F5F5"/>
<path d="M41.6665 20.7676H-0.000167847V23.075H41.6665V20.7676Z" fill="#F5F5F5"/>
<path d="M41.6665 25.3835H-0.000132221L-0.000167847 27.6912H41.6665V25.3835Z" fill="#F5F5F5"/>
<path d="M41.6665 2.3073H-0.000132221L-0.000167847 4.61501H41.6665V2.3073Z" fill="#F5F5F5"/>
<path d="M41.6667 0H3.56258e-05L0 2.30772H41.6667V0Z" fill="#FF4B55"/>
<path d="M41.6666 27.6921H-5.5927e-05L-9.15527e-05 29.9998H41.6666V27.6921Z" fill="#FF4B55"/>
<path d="M41.6666 23.0762H-5.5927e-05L-9.15527e-05 25.3839H41.6666V23.0762Z" fill="#FF4B55"/>
<path d="M41.6666 4.61589H-5.5927e-05L-9.15527e-05 6.92361H41.6666V4.61589Z" fill="#FF4B55"/>
<path d="M41.6666 9.23177H-9.15527e-05V11.5392H41.6666V9.23177Z" fill="#FF4B55"/>
<path d="M41.6666 13.8477H-9.15527e-05V16.1551H41.6666V13.8477Z" fill="#FF4B55"/>
<path d="M41.6666 18.4603H-9.15527e-05V20.7677H41.6666V18.4603Z" fill="#FF4B55"/>
<path d="M16.1539 0L6.50076e-05 0L4.99625e-05 16.1538H16.1539V0Z" fill="#41479B"/>
<path d="M2.19397 4.55449L2.31843 4.92773L2.71183 4.93078C2.76274 4.93119 2.7839 4.99617 2.74294 5.02646L2.42642 5.26019L2.54507 5.63531C2.56042 5.68388 2.50517 5.72402 2.46368 5.69443L2.14358 5.46562L1.82349 5.69443C1.78206 5.72408 1.72675 5.68388 1.7421 5.63531L1.86075 5.26019L1.54423 5.02646C1.50327 4.99623 1.52437 4.93119 1.57528 4.93078L1.96868 4.92773L2.09314 4.55449C2.10948 4.50615 2.17786 4.50615 2.19397 4.55449Z" fill="#F5F5F5"/>
<path d="M2.19397 8.00826L2.31843 8.3815L2.71183 8.38454C2.76274 8.38495 2.7839 8.44993 2.74294 8.48023L2.42642 8.71396L2.54507 9.08908C2.56042 9.13765 2.50517 9.17779 2.46368 9.1482L2.14358 8.91945L1.82349 9.1482C1.78206 9.17779 1.72675 9.13765 1.7421 9.08908L1.86075 8.71396L1.54423 8.48023C1.50327 8.44999 1.52437 8.38495 1.57528 8.38454L1.96868 8.3815L2.09314 8.00826C2.10948 7.95992 2.17786 7.95992 2.19397 8.00826Z" fill="#F5F5F5"/>
<path d="M2.19397 11.1821L2.31843 11.5553L2.71183 11.5584C2.76274 11.5588 2.7839 11.6238 2.74294 11.6541L2.42642 11.8878L2.54507 12.2629C2.56042 12.3115 2.50517 12.3516 2.46368 12.322L2.14358 12.0932L1.82349 12.322C1.78206 12.3516 1.72675 12.3115 1.7421 12.2629L1.86075 11.8878L1.54423 11.6541C1.50327 11.6238 1.52437 11.5588 1.57528 11.5584L1.96868 11.5553L2.09314 11.1821C2.10948 11.1337 2.17786 11.1337 2.19397 11.1821Z" fill="#F5F5F5"/>
<path d="M2.19397 14.0695L2.31843 14.4427L2.71183 14.4457C2.76274 14.4462 2.7839 14.5111 2.74294 14.5414L2.42642 14.7752L2.54507 15.1503C2.56042 15.1989 2.50517 15.239 2.46368 15.2094L2.14358 14.9806L1.82349 15.2094C1.78206 15.239 1.72675 15.1989 1.7421 15.1503L1.86075 14.7752L1.54423 14.5414C1.50327 14.5112 1.52437 14.4462 1.57528 14.4457L1.96868 14.4427L2.09314 14.0695C2.10948 14.0211 2.17786 14.0211 2.19397 14.0695Z" fill="#F5F5F5"/>
<path d="M3.7095 2.91711L3.83395 3.29036L4.22735 3.2934C4.27827 3.29381 4.29942 3.35879 4.25847 3.38903L3.94194 3.62276L4.06059 3.99788C4.07595 4.04645 4.02069 4.08665 3.97921 4.057L3.65923 3.82819L3.33913 4.057C3.2977 4.08665 3.24239 4.04645 3.25774 3.99788L3.37639 3.62276L3.05993 3.38903C3.01897 3.35879 3.04007 3.29376 3.09098 3.2934L3.48438 3.29036L3.60884 2.91711C3.62501 2.86877 3.69339 2.86877 3.7095 2.91711Z" fill="#F5F5F5"/>
<path d="M3.70962 6.3709L3.83407 6.74414L4.22747 6.74718C4.27839 6.7476 4.29954 6.81258 4.25858 6.84287L3.94206 7.0766L4.06071 7.45172C4.07606 7.50029 4.02081 7.54049 3.97932 7.51084L3.65923 7.28203L3.33913 7.51084C3.2977 7.54049 3.24239 7.50029 3.25774 7.45172L3.37639 7.0766L3.05993 6.84287C3.01897 6.81263 3.04007 6.7476 3.09098 6.74718L3.48438 6.74414L3.60884 6.3709C3.62513 6.32256 3.6935 6.32256 3.70962 6.3709Z" fill="#F5F5F5"/>
<path d="M3.70962 9.6521L3.83407 10.0253L4.22747 10.0284C4.27839 10.0288 4.29954 10.0938 4.25858 10.1241L3.94206 10.3578L4.06071 10.7329C4.07606 10.7815 4.02081 10.8216 3.97932 10.792L3.65923 10.5632L3.33913 10.792C3.2977 10.8217 3.24239 10.7815 3.25774 10.7329L3.37639 10.3578L3.05993 10.1241C3.01897 10.0938 3.04007 10.0288 3.09098 10.0284L3.48438 10.0253L3.60884 9.6521C3.62513 9.60382 3.6935 9.60382 3.70962 9.6521Z" fill="#F5F5F5"/>
<path d="M3.70962 12.5981L3.83407 12.9713L4.22747 12.9744C4.27839 12.9748 4.29954 13.0398 4.25858 13.0701L3.94206 13.3038L4.06071 13.6789C4.07606 13.7275 4.02081 13.7677 3.97932 13.738L3.65923 13.5093L3.33913 13.738C3.2977 13.7677 3.24239 13.7275 3.25774 13.6789L3.37639 13.3038L3.05993 13.0701C3.01897 13.0398 3.04007 12.9748 3.09098 12.9744L3.48438 12.9713L3.60884 12.5981C3.62513 12.5498 3.6935 12.5498 3.70962 12.5981Z" fill="#F5F5F5"/>
<path d="M5.22533 1.44246L5.34979 1.8157L5.74319 1.81875C5.7941 1.81916 5.81526 1.88414 5.7743 1.91438L5.45778 2.14811L5.57643 2.52322C5.59178 2.5718 5.53653 2.61193 5.49504 2.58234L5.17494 2.35354L4.85485 2.58234C4.81342 2.61199 4.75811 2.5718 4.77346 2.52322L4.89211 2.14811L4.57565 1.91438C4.53469 1.88414 4.55578 1.8191 4.6067 1.81875L5.0001 1.8157L5.12455 1.44246C5.14084 1.39418 5.20922 1.39418 5.22533 1.44246Z" fill="#F5F5F5"/>
<path d="M2.19469 1.44246L2.31915 1.8157L2.71255 1.81875C2.76346 1.81916 2.78462 1.88414 2.74366 1.91438L2.42714 2.14811L2.54579 2.52322C2.56114 2.5718 2.50589 2.61193 2.4644 2.58234L2.1443 2.35354L1.82421 2.58234C1.78278 2.61199 1.72747 2.5718 1.74282 2.52322L1.86147 2.14811L1.54501 1.91438C1.50405 1.88414 1.52514 1.8191 1.57606 1.81875L1.96946 1.8157L2.09391 1.44246C2.1102 1.39418 2.17858 1.39418 2.19469 1.44246Z" fill="#F5F5F5"/>
<path d="M5.22533 4.55449L5.34979 4.92773L5.74319 4.93078C5.7941 4.93119 5.81526 4.99617 5.7743 5.02646L5.45778 5.26019L5.57643 5.63531C5.59178 5.68388 5.53653 5.72402 5.49504 5.69443L5.17494 5.46562L4.85485 5.69443C4.81342 5.72408 4.75811 5.68388 4.77346 5.63531L4.89211 5.26019L4.57565 5.02646C4.53469 4.99623 4.55578 4.93119 4.6067 4.93078L5.0001 4.92773L5.12455 4.55449C5.14084 4.50615 5.20922 4.50615 5.22533 4.55449Z" fill="#F5F5F5"/>
<path d="M5.22533 8.00826L5.34979 8.3815L5.74319 8.38454C5.7941 8.38495 5.81526 8.44993 5.7743 8.48023L5.45778 8.71396L5.57643 9.08908C5.59178 9.13765 5.53653 9.17779 5.49504 9.1482L5.17494 8.91945L4.85485 9.1482C4.81342 9.17779 4.75811 9.13765 4.77346 9.08908L4.89211 8.71396L4.57565 8.48023C4.53469 8.44999 4.55578 8.38495 4.6067 8.38454L5.0001 8.3815L5.12455 8.00826C5.14084 7.95992 5.20922 7.95992 5.22533 8.00826Z" fill="#F5F5F5"/>
<path d="M5.22533 11.1821L5.34979 11.5553L5.74319 11.5584C5.7941 11.5588 5.81526 11.6238 5.7743 11.6541L5.45778 11.8878L5.57643 12.2629C5.59178 12.3115 5.53653 12.3516 5.49504 12.322L5.17494 12.0932L4.85485 12.322C4.81342 12.3516 4.75811 12.3115 4.77346 12.2629L4.89211 11.8878L4.57565 11.6541C4.53469 11.6238 4.55578 11.5588 4.6067 11.5584L5.0001 11.5553L5.12455 11.1821C5.14084 11.1337 5.20922 11.1337 5.22533 11.1821Z" fill="#F5F5F5"/>
<path d="M5.22533 14.0695L5.34979 14.4427L5.74319 14.4457C5.7941 14.4462 5.81526 14.5111 5.7743 14.5414L5.45778 14.7752L5.57643 15.1503C5.59178 15.1989 5.53653 15.239 5.49504 15.2094L5.17494 14.9806L4.85485 15.2094C4.81342 15.239 4.75811 15.1989 4.77346 15.1503L4.89211 14.7752L4.57565 14.5414C4.53469 14.5112 4.55578 14.4462 4.6067 14.4457L5.0001 14.4427L5.12455 14.0695C5.14084 14.0211 5.20922 14.0211 5.22533 14.0695Z" fill="#F5F5F5"/>
<path d="M6.74028 2.91711L6.86474 3.29036L7.25813 3.2934C7.30905 3.29381 7.3302 3.35879 7.28919 3.38903L6.97272 3.62276L7.09138 3.99788C7.10673 4.04645 7.05147 4.08665 7.00999 4.057L6.68989 3.82819L6.36979 4.057C6.32837 4.08665 6.27306 4.04645 6.28841 3.99788L6.40706 3.62276L6.09054 3.38903C6.04958 3.35879 6.07067 3.29376 6.12165 3.2934L6.51505 3.29036L6.6395 2.91711C6.65585 2.86877 6.72417 2.86877 6.74028 2.91711Z" fill="#F5F5F5"/>
<path d="M6.74028 6.3709L6.86474 6.74414L7.25813 6.74718C7.30905 6.7476 7.3302 6.81258 7.28919 6.84287L6.97272 7.0766L7.09138 7.45172C7.10673 7.50029 7.05147 7.54049 7.00999 7.51084L6.68989 7.28203L6.36979 7.51084C6.32837 7.54049 6.27306 7.50029 6.28841 7.45172L6.40706 7.0766L6.09054 6.84287C6.04958 6.81263 6.07067 6.7476 6.12165 6.74718L6.51505 6.74414L6.6395 6.3709C6.65585 6.32256 6.72417 6.32256 6.74028 6.3709Z" fill="#F5F5F5"/>
<path d="M6.74028 9.6521L6.86474 10.0253L7.25813 10.0284C7.30905 10.0288 7.3302 10.0938 7.28919 10.1241L6.97272 10.3578L7.09138 10.7329C7.10673 10.7815 7.05147 10.8216 7.00999 10.792L6.68989 10.5632L6.36979 10.792C6.32837 10.8217 6.27306 10.7815 6.28841 10.7329L6.40706 10.3578L6.09054 10.1241C6.04958 10.0938 6.07067 10.0288 6.12165 10.0284L6.51505 10.0253L6.6395 9.6521C6.65585 9.60382 6.72417 9.60382 6.74028 9.6521Z" fill="#F5F5F5"/>
<path d="M6.74028 12.5981L6.86474 12.9713L7.25813 12.9744C7.30905 12.9748 7.3302 13.0398 7.28919 13.0701L6.97272 13.3038L7.09138 13.6789C7.10673 13.7275 7.05147 13.7677 7.00999 13.738L6.68989 13.5093L6.36979 13.738C6.32837 13.7677 6.27306 13.7275 6.28841 13.6789L6.40706 13.3038L6.09054 13.0701C6.04958 13.0398 6.07067 12.9748 6.12165 12.9744L6.51505 12.9713L6.6395 12.5981C6.65585 12.5498 6.72417 12.5498 6.74028 12.5981Z" fill="#F5F5F5"/>
<path d="M8.25592 1.44246L8.38038 1.8157L8.77378 1.81875C8.82469 1.81916 8.84585 1.88414 8.80483 1.91438L8.48837 2.14811L8.60702 2.52322C8.62237 2.5718 8.56712 2.61193 8.52563 2.58234L8.20553 2.35354L7.88544 2.58234C7.84401 2.61199 7.7887 2.5718 7.80405 2.52322L7.9227 2.14811L7.60624 1.91438C7.56528 1.88414 7.58637 1.8191 7.63735 1.81875L8.03075 1.8157L8.1552 1.44246C8.17149 1.39418 8.23981 1.39418 8.25592 1.44246Z" fill="#F5F5F5"/>
<path d="M8.25587 4.5545L8.38032 4.92774L8.77372 4.93079C8.82464 4.9312 8.84579 4.99618 8.80477 5.02647L8.48831 5.2602L8.60702 5.63526C8.62237 5.68383 8.56712 5.72397 8.52563 5.69438L8.20553 5.46557L7.88544 5.69438C7.84401 5.72403 7.7887 5.68383 7.80405 5.63526L7.9227 5.26014L7.60624 5.02641C7.56528 4.99618 7.58637 4.93114 7.63735 4.93073L8.03075 4.92768L8.1552 4.55444C8.17143 4.50616 8.23975 4.50616 8.25587 4.5545Z" fill="#F5F5F5"/>
<path d="M8.25592 8.00826L8.38038 8.3815L8.77378 8.38454C8.82469 8.38495 8.84585 8.44993 8.80483 8.48023L8.48837 8.71396L8.60702 9.08908C8.62237 9.13765 8.56712 9.17779 8.52563 9.1482L8.20553 8.91945L7.88544 9.1482C7.84401 9.17779 7.7887 9.13765 7.80405 9.08908L7.9227 8.71396L7.60624 8.48023C7.56528 8.44999 7.58637 8.38495 7.63735 8.38454L8.03075 8.3815L8.1552 8.00826C8.17149 7.95992 8.23981 7.95992 8.25592 8.00826Z" fill="#F5F5F5"/>
<path d="M8.25592 11.1821L8.38038 11.5553L8.77378 11.5584C8.82469 11.5588 8.84585 11.6238 8.80483 11.6541L8.48837 11.8878L8.60702 12.2629C8.62237 12.3115 8.56712 12.3516 8.52563 12.322L8.20553 12.0932L7.88544 12.322C7.84401 12.3516 7.7887 12.3115 7.80405 12.2629L7.9227 11.8878L7.60624 11.6541C7.56528 11.6238 7.58637 11.5588 7.63735 11.5584L8.03075 11.5553L8.1552 11.1821C8.17149 11.1337 8.23981 11.1337 8.25592 11.1821Z" fill="#F5F5F5"/>
<path d="M8.25592 14.0695L8.38038 14.4427L8.77378 14.4457C8.82469 14.4462 8.84585 14.5111 8.80483 14.5414L8.48837 14.7752L8.60702 15.1503C8.62237 15.1989 8.56712 15.239 8.52563 15.2094L8.20553 14.9806L7.88544 15.2094C7.84401 15.239 7.7887 15.1989 7.80405 15.1503L7.9227 14.7752L7.60624 14.5414C7.56528 14.5112 7.58637 14.4462 7.63735 14.4457L8.03075 14.4427L8.1552 14.0695C8.17149 14.0211 8.23981 14.0211 8.25592 14.0695Z" fill="#F5F5F5"/>
<path d="M9.77129 2.91711L9.89574 3.29036L10.2891 3.2934C10.3401 3.29381 10.3612 3.35879 10.3202 3.38903L10.0037 3.62276L10.1223 3.99788C10.1377 4.04645 10.0824 4.08665 10.0409 4.057L9.72084 3.82819L9.40074 4.057C9.35932 4.08665 9.30401 4.04645 9.31936 3.99788L9.43801 3.62276L9.12154 3.38903C9.08059 3.35879 9.10168 3.29376 9.1526 3.2934L9.546 3.29036L9.67045 2.91711C9.68686 2.86877 9.75518 2.86877 9.77129 2.91711Z" fill="#F5F5F5"/>
<path d="M9.77129 6.3709L9.89574 6.74414L10.2891 6.74718C10.3401 6.7476 10.3612 6.81258 10.3202 6.84287L10.0037 7.0766L10.1223 7.45172C10.1377 7.50029 10.0824 7.54049 10.0409 7.51084L9.72084 7.28203L9.40074 7.51084C9.35932 7.54049 9.30401 7.50029 9.31936 7.45172L9.43801 7.0766L9.12154 6.84287C9.08059 6.81263 9.10168 6.7476 9.1526 6.74718L9.546 6.74414L9.67045 6.3709C9.68686 6.32256 9.75518 6.32256 9.77129 6.3709Z" fill="#F5F5F5"/>
<path d="M9.77129 9.6521L9.89574 10.0253L10.2891 10.0284C10.3401 10.0288 10.3612 10.0938 10.3202 10.1241L10.0037 10.3578L10.1223 10.7329C10.1377 10.7815 10.0824 10.8216 10.0409 10.792L9.72084 10.5632L9.40074 10.792C9.35932 10.8217 9.30401 10.7815 9.31936 10.7329L9.43801 10.3578L9.12154 10.1241C9.08059 10.0938 9.10168 10.0288 9.1526 10.0284L9.546 10.0253L9.67045 9.6521C9.68686 9.60382 9.75518 9.60382 9.77129 9.6521Z" fill="#F5F5F5"/>
<path d="M9.77129 12.5981L9.89574 12.9713L10.2891 12.9744C10.3401 12.9748 10.3612 13.0398 10.3202 13.0701L10.0037 13.3038L10.1223 13.6789C10.1377 13.7275 10.0824 13.7677 10.0409 13.738L9.72084 13.5093L9.40074 13.738C9.35932 13.7677 9.30401 13.7275 9.31936 13.6789L9.43801 13.3038L9.12154 13.0701C9.08059 13.0398 9.10168 12.9748 9.1526 12.9744L9.546 12.9713L9.67045 12.5981C9.68686 12.5498 9.75518 12.5498 9.77129 12.5981Z" fill="#F5F5F5"/>
<path d="M11.2866 1.44246L11.4111 1.8157L11.8045 1.81875C11.8554 1.81916 11.8766 1.88414 11.8355 1.91438L11.519 2.14811L11.6377 2.52322C11.653 2.5718 11.5977 2.61193 11.5563 2.58234L11.2362 2.35354L10.9161 2.58234C10.8747 2.61199 10.8194 2.5718 10.8347 2.52322L10.9534 2.14811L10.6368 1.91438C10.5959 1.88414 10.617 1.8191 10.6679 1.81875L11.0613 1.8157L11.1858 1.44246C11.2022 1.39418 11.2705 1.39418 11.2866 1.44246Z" fill="#F5F5F5"/>
<path d="M11.2866 4.55449L11.4111 4.92773L11.8045 4.93078C11.8554 4.93119 11.8766 4.99617 11.8355 5.02646L11.519 5.26019L11.6377 5.63531C11.653 5.68388 11.5977 5.72402 11.5563 5.69443L11.2362 5.46562L10.9161 5.69443C10.8747 5.72408 10.8194 5.68388 10.8347 5.63531L10.9534 5.26019L10.6368 5.02646C10.5959 4.99623 10.617 4.93119 10.6679 4.93078L11.0613 4.92773L11.1858 4.55449C11.2022 4.50615 11.2705 4.50615 11.2866 4.55449Z" fill="#F5F5F5"/>
<path d="M11.2866 8.00826L11.4111 8.3815L11.8045 8.38454C11.8554 8.38495 11.8766 8.44993 11.8355 8.48023L11.519 8.71396L11.6377 9.08908C11.653 9.13765 11.5977 9.17779 11.5563 9.1482L11.2362 8.91945L10.9161 9.1482C10.8747 9.17779 10.8194 9.13765 10.8347 9.08908L10.9534 8.71396L10.6368 8.48023C10.5959 8.44999 10.617 8.38495 10.6679 8.38454L11.0613 8.3815L11.1858 8.00826C11.2022 7.95992 11.2705 7.95992 11.2866 8.00826Z" fill="#F5F5F5"/>
<path d="M11.2866 11.1821L11.4111 11.5553L11.8045 11.5584C11.8554 11.5588 11.8766 11.6238 11.8355 11.6541L11.519 11.8878L11.6377 12.2629C11.653 12.3115 11.5977 12.3516 11.5563 12.322L11.2362 12.0932L10.9161 12.322C10.8747 12.3516 10.8194 12.3115 10.8347 12.2629L10.9534 11.8878L10.6368 11.6541C10.5959 11.6238 10.617 11.5588 10.6679 11.5584L11.0613 11.5553L11.1858 11.1821C11.2022 11.1337 11.2705 11.1337 11.2866 11.1821Z" fill="#F5F5F5"/>
<path d="M11.2866 14.0695L11.4111 14.4427L11.8045 14.4457C11.8554 14.4462 11.8766 14.5111 11.8355 14.5414L11.519 14.7752L11.6377 15.1503C11.653 15.1989 11.5977 15.239 11.5563 15.2094L11.2362 14.9806L10.9161 15.2094C10.8747 15.239 10.8194 15.1989 10.8347 15.1503L10.9534 14.7752L10.6368 14.5414C10.5959 14.5112 10.617 14.4462 10.6679 14.4457L11.0613 14.4427L11.1858 14.0695C11.2022 14.0211 11.2705 14.0211 11.2866 14.0695Z" fill="#F5F5F5"/>
<path d="M12.8023 2.91711L12.9268 3.29036L13.3202 3.2934C13.3711 3.29381 13.3923 3.35879 13.3513 3.38903L13.0347 3.62276L13.1534 3.99788C13.1687 4.04645 13.1134 4.08665 13.072 4.057L12.7519 3.82819L12.4318 4.057C12.3904 4.08665 12.3351 4.04645 12.3504 3.99788L12.4691 3.62276L12.1526 3.38903C12.1116 3.35879 12.1327 3.29376 12.1836 3.2934L12.5771 3.29036L12.7015 2.91711C12.7179 2.86877 12.7862 2.86877 12.8023 2.91711Z" fill="#F5F5F5"/>
<path d="M12.8023 6.3709L12.9268 6.74414L13.3202 6.74718C13.3711 6.7476 13.3923 6.81258 13.3513 6.84287L13.0347 7.0766L13.1534 7.45172C13.1687 7.50029 13.1134 7.54049 13.072 7.51084L12.7519 7.28203L12.4318 7.51084C12.3904 7.54049 12.3351 7.50029 12.3504 7.45172L12.4691 7.0766L12.1526 6.84287C12.1116 6.81263 12.1327 6.7476 12.1836 6.74718L12.5771 6.74414L12.7015 6.3709C12.7179 6.32256 12.7862 6.32256 12.8023 6.3709Z" fill="#F5F5F5"/>
<path d="M12.8023 9.6521L12.9268 10.0253L13.3202 10.0284C13.3711 10.0288 13.3923 10.0938 13.3513 10.1241L13.0347 10.3578L13.1534 10.7329C13.1687 10.7815 13.1134 10.8216 13.072 10.792L12.7519 10.5632L12.4318 10.792C12.3904 10.8217 12.3351 10.7815 12.3504 10.7329L12.4691 10.3578L12.1526 10.1241C12.1116 10.0938 12.1327 10.0288 12.1836 10.0284L12.5771 10.0253L12.7015 9.6521C12.7179 9.60382 12.7862 9.60382 12.8023 9.6521Z" fill="#F5F5F5"/>
<path d="M12.8023 12.5981L12.9268 12.9713L13.3202 12.9744C13.3711 12.9748 13.3923 13.0398 13.3513 13.0701L13.0347 13.3038L13.1534 13.6789C13.1687 13.7275 13.1134 13.7677 13.072 13.738L12.7519 13.5093L12.4318 13.738C12.3904 13.7677 12.3351 13.7275 12.3504 13.6789L12.4691 13.3038L12.1526 13.0701C12.1116 13.0398 12.1327 12.9748 12.1836 12.9744L12.5771 12.9713L12.7015 12.5981C12.7179 12.5498 12.7862 12.5498 12.8023 12.5981Z" fill="#F5F5F5"/>
<path d="M14.3176 1.44246L14.442 1.8157L14.8354 1.81875C14.8864 1.81916 14.9075 1.88414 14.8666 1.91438L14.55 2.14811L14.6687 2.52322C14.684 2.5718 14.6287 2.61193 14.5873 2.58234L14.2672 2.35354L13.9471 2.58234C13.9057 2.61199 13.8504 2.5718 13.8657 2.52322L13.9844 2.14811L13.6678 1.91438C13.6269 1.88414 13.648 1.8191 13.6989 1.81875L14.0923 1.8157L14.2167 1.44246C14.2332 1.39418 14.3015 1.39418 14.3176 1.44246Z" fill="#F5F5F5"/>
<path d="M14.3176 4.55449L14.442 4.92773L14.8354 4.93078C14.8864 4.93119 14.9075 4.99617 14.8666 5.02646L14.55 5.26019L14.6687 5.63531C14.684 5.68388 14.6287 5.72402 14.5873 5.69443L14.2672 5.46562L13.9471 5.69443C13.9057 5.72408 13.8504 5.68388 13.8657 5.63531L13.9844 5.26019L13.6678 5.02646C13.6269 4.99623 13.648 4.93119 13.6989 4.93078L14.0923 4.92773L14.2167 4.55449C14.2332 4.50615 14.3015 4.50615 14.3176 4.55449Z" fill="#F5F5F5"/>
<path d="M14.3176 8.00826L14.442 8.3815L14.8354 8.38454C14.8864 8.38495 14.9075 8.44993 14.8666 8.48023L14.55 8.71396L14.6687 9.08908C14.684 9.13765 14.6287 9.17779 14.5873 9.1482L14.2672 8.91945L13.9471 9.1482C13.9057 9.17779 13.8504 9.13765 13.8657 9.08908L13.9844 8.71396L13.6678 8.48023C13.6269 8.44999 13.648 8.38495 13.6989 8.38454L14.0923 8.3815L14.2167 8.00826C14.2332 7.95992 14.3015 7.95992 14.3176 8.00826Z" fill="#F5F5F5"/>
<path d="M14.3176 11.1821L14.442 11.5553L14.8354 11.5584C14.8864 11.5588 14.9075 11.6238 14.8666 11.6541L14.55 11.8878L14.6687 12.2629C14.684 12.3115 14.6287 12.3516 14.5873 12.322L14.2672 12.0932L13.9471 12.322C13.9057 12.3516 13.8504 12.3115 13.8657 12.2629L13.9844 11.8878L13.6678 11.6541C13.6269 11.6238 13.648 11.5588 13.6989 11.5584L14.0923 11.5553L14.2167 11.1821C14.2332 11.1337 14.3015 11.1337 14.3176 11.1821Z" fill="#F5F5F5"/>
<path d="M14.3176 14.0695L14.442 14.4427L14.8354 14.4457C14.8864 14.4462 14.9075 14.5111 14.8666 14.5414L14.55 14.7752L14.6687 15.1503C14.684 15.1989 14.6287 15.239 14.5873 15.2094L14.2672 14.9806L13.9471 15.2094C13.9057 15.239 13.8504 15.1989 13.8657 15.1503L13.9844 14.7752L13.6678 14.5414C13.6269 14.5112 13.648 14.4462 13.6989 14.4457L14.0923 14.4427L14.2167 14.0695C14.2332 14.0211 14.3015 14.0211 14.3176 14.0695Z" fill="#F5F5F5"/>
</g>
<defs>
<clipPath id="clip0_1535_14976">
<rect width="30" height="30" rx="15" fill="white"/>
</clipPath>
</defs>
</svg>
