<svg width="40" height="36" viewBox="0 0 40 36" fill="none" xmlns="http://www.w3.org/2000/svg">
<g opacity="0.7" clip-path="url(#clip0_4800_16)">
<path d="M0 14.2331C0.425261 14.2331 0.850524 14.2162 1.27158 14.2331C3.35579 14.3215 5.43999 14.4183 7.52841 14.5194C9.77683 14.6246 12.0252 14.6962 14.2737 14.8057C15.1495 14.8478 15.941 14.5994 16.7452 14.3467C17.4021 14.1404 18.0589 13.9425 18.7242 13.7615C19.5621 13.5341 20.3874 13.551 21.2252 13.7825C21.9663 13.9846 22.7031 14.191 23.4231 14.4478C24.261 14.7467 25.1073 14.831 25.9958 14.7888C28.9389 14.6457 31.8821 14.5404 34.8295 14.4141C36.4463 14.3425 38.0631 14.2583 39.68 14.1825C39.7389 14.1825 39.8231 14.1446 39.8568 14.1994C39.9031 14.2752 39.8105 14.3215 39.7726 14.3762C39.4989 14.7678 39.1116 14.9615 38.6442 15.0204C37.0358 15.2225 35.4231 15.3446 33.8105 15.4962C31.6042 15.7025 29.3937 15.8583 27.1958 16.1278C26.9095 16.1615 26.6231 16.2289 26.3368 16.2794C25.5747 16.4183 25.0526 16.8646 24.6863 17.5341C24.2779 18.2836 23.8316 19.0078 23.2631 19.6478C22.3663 20.6583 21.28 21.3994 20.0842 22.0015C19.9579 22.0646 19.861 22.031 19.7474 21.9762C17.8105 21.0373 16.2989 19.6478 15.2926 17.732C15.2421 17.6394 15.1874 17.5467 15.1368 17.4541C14.7663 16.7678 14.181 16.3973 13.4231 16.2541C12.3874 16.0562 11.3389 15.9804 10.2947 15.8794C8.93893 15.7489 7.57893 15.6394 6.22315 15.5173C4.77894 15.3867 3.33894 15.2478 1.89894 15.1089C1.65052 15.0836 1.40631 15.0541 1.15789 15.0162C0.639998 14.9404 0.252631 14.6667 0.00421053 14.2373L0 14.2331ZM19.8821 14.2794C19.7937 14.292 19.68 14.3004 19.5663 14.3215C18.7831 14.4688 18.021 14.692 17.2674 14.9446C16.8295 15.092 16.3831 15.2183 15.9958 15.4794C15.7221 15.6604 15.6463 15.8625 15.7221 16.1741C15.8905 16.8815 16.1684 17.551 16.5305 18.1783C17.3137 19.551 18.4884 20.5152 19.8316 21.2941C19.9326 21.3531 20.0042 21.3067 20.0842 21.2604C20.5642 20.9867 21.0189 20.671 21.4568 20.3299C22.8042 19.2689 23.6716 17.9004 24.1263 16.2541C24.2358 15.8625 24.1474 15.6436 23.8021 15.4289C23.701 15.3657 23.5916 15.3152 23.4779 15.2688C22.7242 14.9531 21.941 14.7173 21.1537 14.511C20.741 14.4015 20.3326 14.2878 19.8779 14.2752L19.8821 14.2794Z" fill="#18181B"/>
<path d="M1.25049 15.5254C1.65891 15.5591 2.06733 15.5928 2.47575 15.6307C3.95365 15.7696 5.43154 15.9001 6.90523 16.0559C8.7747 16.2538 10.6526 16.3717 12.5179 16.6454C12.7621 16.6833 13.0063 16.738 13.2505 16.7801C13.8147 16.8812 14.2021 17.2391 14.5221 17.677C14.8631 18.1485 15.1831 18.6328 15.52 19.1086C15.9494 19.7107 16.4379 20.2622 17.0189 20.7296C17.0442 20.7507 17.0652 20.7759 17.1368 20.8391C15.7473 20.637 14.4547 20.3043 13.1705 19.8707C13.4905 19.8454 13.8105 19.8201 14.1305 19.7949C14.3494 19.778 14.5684 19.7654 14.7873 19.7486C14.821 19.7486 14.8673 19.7401 14.88 19.7191C14.9136 19.6728 14.8673 19.6391 14.8421 19.6138C14.64 19.3907 14.3789 19.3233 14.0926 19.3401C13.4063 19.378 12.7158 19.3907 12.0294 19.3864C11.0105 19.3822 10.0379 19.117 9.06101 18.8686C8.40417 18.7001 7.75154 18.5064 7.10733 18.2538C7.33891 18.2538 7.5747 18.2538 7.80628 18.2538C9.37259 18.2875 10.9431 18.3212 12.5094 18.3507C12.581 18.3507 12.6905 18.4012 12.7158 18.3128C12.741 18.2286 12.64 18.1696 12.5726 18.1191C12.3831 17.9801 12.16 17.9338 11.9284 17.9254C10.2189 17.8622 8.50944 17.7822 6.80417 17.6559C5.80628 17.5801 4.80838 17.5128 3.83575 17.2391C2.79575 16.9443 1.98312 16.3128 1.2547 15.5254H1.25049Z" fill="#18181B"/>
<path d="M32.7578 18.2416C32.2315 18.4774 31.6799 18.6374 31.1284 18.7889C30.3494 18.9995 29.5663 19.2184 28.7621 19.3195C27.7852 19.4458 26.8042 19.3911 25.8273 19.3405C25.5494 19.3279 25.2884 19.37 25.0778 19.5721C25.0357 19.61 24.9768 19.6521 24.9936 19.7111C25.0147 19.7826 25.0905 19.7489 25.141 19.7532C25.5789 19.7868 26.021 19.8163 26.4589 19.85C26.5389 19.8584 26.6273 19.8416 26.7368 19.9174C25.4273 20.3089 24.1347 20.6374 22.8168 20.8353C22.7873 20.7932 22.8126 20.7721 22.8294 20.7553C23.6631 20.1026 24.2778 19.2605 24.8589 18.3889C25.0399 18.1195 25.2336 17.8542 25.4231 17.5889C25.781 17.0879 26.2736 16.8226 26.8799 16.7174C28.2021 16.4858 29.541 16.3847 30.8757 16.2542C32.0968 16.1321 33.3178 16.01 34.5431 15.8921C35.5326 15.7953 36.5221 15.7068 37.5115 15.6184C37.8147 15.5889 38.1178 15.5637 38.4252 15.5384C38.4926 15.5342 38.5642 15.5047 38.6568 15.5637C38.5473 15.6689 38.4378 15.7658 38.3368 15.8668C37.2631 16.9405 35.9284 17.3953 34.4505 17.5342C32.2989 17.7363 30.1473 17.8374 27.9873 17.9216C27.8021 17.93 27.621 17.9595 27.4484 18.0395C27.3178 18.0984 27.1999 18.1742 27.1368 18.3553C29.0273 18.3174 30.8926 18.2795 32.7621 18.2374L32.7578 18.2416Z" fill="#18181B"/>
<path d="M19.5451 16.8602C19.5451 16.6371 19.5451 16.4729 19.5451 16.3129C19.5451 16.2413 19.5577 16.1865 19.6461 16.1865C19.7346 16.1865 19.7472 16.2455 19.7472 16.3171C19.7472 16.5781 19.7472 16.8392 19.7472 17.1044C19.7472 17.1634 19.7682 17.2434 19.6882 17.2686C19.6082 17.2939 19.5367 17.2686 19.4819 17.2013C19.3472 17.0286 19.2082 16.8602 19.0567 16.6707C18.9851 16.8265 19.0314 16.9739 19.0188 17.1128C19.0146 17.1928 19.0272 17.2813 18.9093 17.2728C18.7998 17.2686 18.8251 17.1802 18.8209 17.1128C18.7914 16.8265 18.8882 16.536 18.7619 16.2581C18.7451 16.2202 18.783 16.195 18.8209 16.1907C18.9051 16.1823 18.9893 16.1739 19.0525 16.2539C19.1577 16.3886 19.263 16.5234 19.3682 16.6539C19.4103 16.7086 19.4567 16.7592 19.5451 16.8644V16.8602Z" fill="#18181B"/>
<path d="M17.6082 16.9871C17.6713 17.1977 17.5113 17.2524 17.3261 17.2819C16.8292 17.3577 16.5092 17.0166 16.6355 16.5492C16.724 16.2166 17.2082 16.0398 17.5155 16.2208C17.5787 16.2587 17.5871 16.305 17.5661 16.364C17.5324 16.4524 17.4776 16.4061 17.4313 16.385C17.2713 16.3134 17.1113 16.2966 16.9808 16.4398C16.8587 16.5703 16.8545 16.7345 16.905 16.8987C16.9303 16.9829 16.985 17.0461 17.0692 17.0882C17.1619 17.1345 17.2797 17.1682 17.3429 17.0798C17.3976 16.9998 17.4145 16.8777 17.3008 16.8019C17.2713 16.7808 17.2376 16.7556 17.2629 16.7177C17.2755 16.7008 17.3092 16.6966 17.3387 16.6924C17.5829 16.6503 17.6166 16.684 17.6124 16.9956L17.6082 16.9871Z" fill="#18181B"/>
<path d="M17.8482 16.7416C17.8187 16.6027 17.8945 16.4301 17.7977 16.2659C17.7598 16.2027 17.8271 16.1816 17.8819 16.1816C18.0714 16.1816 18.265 16.1816 18.4545 16.1816C18.5219 16.1816 18.5682 16.2027 18.5766 16.2743C18.585 16.3711 18.5093 16.3459 18.4587 16.3459C18.3871 16.3501 18.3156 16.3543 18.2482 16.3459C18.1345 16.3374 18.1008 16.388 18.1008 16.4974C18.1008 16.6027 18.1514 16.6237 18.244 16.6322C18.3408 16.6406 18.5135 16.569 18.5135 16.6953C18.5135 16.8595 18.3366 16.7711 18.2398 16.7753C18.1008 16.7837 18.105 16.8595 18.1008 16.9606C18.0966 17.0743 18.1429 17.1122 18.2524 17.108C18.3366 17.1037 18.4208 17.108 18.5093 17.108C18.564 17.108 18.6061 17.129 18.6019 17.1964C18.6019 17.2511 18.564 17.2722 18.5177 17.2722C18.3282 17.2722 18.1345 17.2722 17.945 17.2722C17.8566 17.2722 17.8566 17.1964 17.8566 17.1332C17.8566 17.0111 17.8566 16.8932 17.8566 16.7459L17.8482 16.7416Z" fill="#18181B"/>
<path d="M21.2422 17.294C21.158 17.2855 21.0906 17.2771 21.0191 17.2645C20.9475 17.2561 20.9012 17.2224 20.9138 17.1382C20.9306 17.0371 20.9938 17.0666 21.057 17.0792C21.1243 17.0961 21.1959 17.1087 21.2675 17.1129C21.3306 17.1129 21.398 17.1045 21.4191 17.0287C21.4359 16.9529 21.3854 16.9066 21.3306 16.8771C21.238 16.8224 21.1412 16.7845 21.0527 16.7255C20.9433 16.654 20.8885 16.5487 20.9138 16.4182C20.9391 16.2919 21.0317 16.2287 21.1454 16.195C21.2843 16.1529 21.4275 16.1655 21.5664 16.195C21.6212 16.2076 21.6759 16.2329 21.6549 16.3129C21.6338 16.3887 21.5875 16.3845 21.5243 16.3676C21.4064 16.334 21.2422 16.254 21.1833 16.4013C21.1243 16.5487 21.3264 16.5571 21.4149 16.6287C21.4527 16.6582 21.4991 16.6792 21.5412 16.7045C21.6549 16.7845 21.718 16.8898 21.6927 17.0287C21.6675 17.1634 21.5664 17.2308 21.4443 17.2645C21.377 17.2855 21.3054 17.2855 21.2464 17.294H21.2422Z" fill="#18181B"/>
<path d="M20.0128 16.7459C19.9833 16.6111 20.0591 16.4385 19.9665 16.2743C19.9201 16.1985 19.9917 16.1816 20.0549 16.1816C20.2444 16.1816 20.438 16.1816 20.6275 16.1816C20.6949 16.1816 20.7412 16.2111 20.7412 16.2785C20.7412 16.3669 20.6654 16.3416 20.6149 16.3459C20.5517 16.3501 20.4886 16.3501 20.4254 16.3459C20.3159 16.3374 20.2738 16.3795 20.2738 16.4932C20.2738 16.5943 20.3117 16.6237 20.4128 16.6322C20.5054 16.6406 20.6822 16.5648 20.6822 16.6995C20.6822 16.8637 20.5012 16.7711 20.4086 16.7795C20.2822 16.7922 20.278 16.8553 20.278 16.948C20.278 17.0448 20.2907 17.1164 20.4128 17.108C20.5054 17.1037 20.598 17.108 20.6907 17.108C20.7412 17.108 20.7707 17.1374 20.7707 17.188C20.7707 17.2385 20.737 17.268 20.6907 17.268C20.5012 17.268 20.3075 17.268 20.118 17.268C20.0296 17.268 20.0212 17.2048 20.0212 17.1332C20.0212 17.0111 20.0212 16.8932 20.0212 16.7416L20.0128 16.7459Z" fill="#18181B"/>
<path d="M22.741 17.2935C22.6652 17.2809 22.5894 17.2724 22.5136 17.2598C22.4462 17.2472 22.4252 17.2009 22.4336 17.1335C22.4462 17.0493 22.4968 17.0535 22.5557 17.0746C22.6441 17.104 22.7326 17.1209 22.8252 17.1082C22.8757 17.0998 22.922 17.0746 22.9347 17.024C22.9515 16.9693 22.9178 16.923 22.8757 16.9019C22.7831 16.8472 22.6862 16.8093 22.5936 16.7546C22.4715 16.683 22.3789 16.5819 22.4083 16.4261C22.4378 16.2619 22.5641 16.203 22.7157 16.1777C22.8336 16.1567 22.9557 16.1651 23.0736 16.1946C23.1326 16.2114 23.1747 16.2451 23.162 16.3167C23.1452 16.4009 23.0904 16.3798 23.0315 16.3672C22.9136 16.3419 22.7494 16.2535 22.6947 16.4051C22.6399 16.5524 22.8378 16.5609 22.9262 16.6324C22.9599 16.6577 22.9978 16.6746 23.0357 16.6956C23.162 16.7714 23.2294 16.8851 23.2041 17.0324C23.1789 17.1756 23.0652 17.2388 22.9389 17.2767C22.8799 17.2935 22.8126 17.2935 22.7494 17.2977L22.741 17.2935Z" fill="#18181B"/>
<path d="M22.1769 16.7386C22.1769 16.8354 22.1853 16.9365 22.1769 17.0333C22.1685 17.1217 22.2443 17.2649 22.059 17.2691C21.8737 17.2733 21.9327 17.1344 21.9327 17.046C21.9243 16.8649 21.9327 16.6796 21.9327 16.4944C21.9327 16.4439 21.9285 16.3975 21.9243 16.347C21.9201 16.2965 21.819 16.267 21.8864 16.2081C21.9495 16.1533 22.038 16.1786 22.1095 16.187C22.198 16.1954 22.1811 16.2754 22.1853 16.3386C22.1853 16.4733 22.1853 16.6081 22.1853 16.7386H22.1769Z" fill="#18181B"/>
</g>
<defs>
<clipPath id="clip0_4800_16">
<rect width="40" height="36" fill="white"/>
</clipPath>
</defs>
</svg>
